<svg xmlns="http://www.w3.org/2000/svg" xmlns:xlink="http://www.w3.org/1999/xlink" width="500" zoomAndPan="magnify" viewBox="0 0 375 374.999991" height="500" preserveAspectRatio="xMidYMid meet" version="1.0"><defs><clipPath id="9fa3849121"><path d="M 77 50.15625 L 79 50.15625 L 79 105 L 77 105 Z M 77 50.15625 " clip-rule="nonzero"/></clipPath><clipPath id="0b1fe0ca4a"><path d="M 54 50.15625 L 64 50.15625 L 64 105 L 54 105 Z M 54 50.15625 " clip-rule="nonzero"/></clipPath><clipPath id="94d7a23d74"><path d="M 46 50.15625 L 127 50.15625 L 127 132 L 46 132 Z M 46 50.15625 " clip-rule="nonzero"/></clipPath><clipPath id="16539b8373"><path d="M 108 50.15625 L 157 50.15625 L 157 105 L 108 105 Z M 108 50.15625 " clip-rule="nonzero"/></clipPath><clipPath id="a28eb42341"><path d="M 132 50.15625 L 157 50.15625 L 157 65 L 132 65 Z M 132 50.15625 " clip-rule="nonzero"/></clipPath><clipPath id="9c92c849d8"><path d="M 140 50.15625 L 188 50.15625 L 188 78 L 140 78 Z M 140 50.15625 " clip-rule="nonzero"/></clipPath><clipPath id="92361d4b62"><path d="M 186 50.15625 L 189 50.15625 L 189 52 L 186 52 Z M 186 50.15625 " clip-rule="nonzero"/></clipPath><clipPath id="3dafba5aa8"><path d="M 187 50.15625 L 236 50.15625 L 236 105 L 187 105 Z M 187 50.15625 " clip-rule="nonzero"/></clipPath><clipPath id="1e99acd153"><path d="M 61.871094 373.75 L 63.332031 373.75 L 63.332031 374.90625 L 61.871094 374.90625 Z M 61.871094 373.75 " clip-rule="nonzero"/></clipPath><clipPath id="8fe9c1322d"><path d="M 93.109375 360.839844 L 117.679688 360.839844 L 117.679688 374.90625 L 93.109375 374.90625 Z M 93.109375 360.839844 " clip-rule="nonzero"/></clipPath><clipPath id="4f8c65c1b8"><path d="M 62.496094 347.304688 L 110.183594 347.304688 L 110.183594 374.90625 L 62.496094 374.90625 Z M 62.496094 347.304688 " clip-rule="nonzero"/></clipPath><clipPath id="3ef996a908"><path d="M 132.464844 347.304688 L 141.417969 347.304688 L 141.417969 374.90625 L 132.464844 374.90625 Z M 132.464844 347.304688 " clip-rule="nonzero"/></clipPath><clipPath id="2df06b122e"><path d="M 171.195312 320.652344 L 172.652344 320.652344 L 172.652344 374.90625 L 171.195312 374.90625 Z M 171.195312 320.652344 " clip-rule="nonzero"/></clipPath><clipPath id="ac9b7c2f1d"><path d="M 186.1875 320.652344 L 220.128906 320.652344 L 220.128906 374.90625 L 186.1875 374.90625 Z M 186.1875 320.652344 " clip-rule="nonzero"/></clipPath><clipPath id="d4e4941bb1"><path d="M 148.082031 320.652344 L 157.660156 320.652344 L 157.660156 374.90625 L 148.082031 374.90625 Z M 148.082031 320.652344 " clip-rule="nonzero"/></clipPath><clipPath id="f5b30c66f4"><path d="M 0 50.15625 L 1 50.15625 L 1 52 L 0 52 Z M 0 50.15625 " clip-rule="nonzero"/></clipPath><clipPath id="34cebba99c"><path d="M 0 50.15625 L 48 50.15625 L 48 79 L 0 79 Z M 0 50.15625 " clip-rule="nonzero"/></clipPath><clipPath id="3e1ea56778"><path d="M 30 50.15625 L 56 50.15625 L 56 65 L 30 65 Z M 30 50.15625 " clip-rule="nonzero"/></clipPath><clipPath id="45e8acda14"><path d="M 61 50.15625 L 63 50.15625 L 63 52 L 61 52 Z M 61 50.15625 " clip-rule="nonzero"/></clipPath><clipPath id="a7af290c5e"><path d="M 15.019531 320.652344 L 62.707031 320.652344 L 62.707031 374.90625 L 15.019531 374.90625 Z M 15.019531 320.652344 " clip-rule="nonzero"/></clipPath><clipPath id="e30fb3f414"><path d="M 0.0273438 320.652344 L 32.71875 320.652344 L 32.71875 374.90625 L 0.0273438 374.90625 Z M 0.0273438 320.652344 " clip-rule="nonzero"/></clipPath><clipPath id="c4a3226c08"><path d="M 265 50.15625 L 267 50.15625 L 267 105 L 265 105 Z M 265 50.15625 " clip-rule="nonzero"/></clipPath><clipPath id="35fb86b0f8"><path d="M 217 50.15625 L 252 50.15625 L 252 105 L 217 105 Z M 217 50.15625 " clip-rule="nonzero"/></clipPath><clipPath id="c1f02ef4ac"><path d="M 202 50.15625 L 314 50.15625 L 314 159 L 202 159 Z M 202 50.15625 " clip-rule="nonzero"/></clipPath><clipPath id="033dbb6bcb"><path d="M 296 50.15625 L 344 50.15625 L 344 105 L 296 105 Z M 296 50.15625 " clip-rule="nonzero"/></clipPath><clipPath id="dc97c7900d"><path d="M 327.371094 157.1875 L 374.964844 157.1875 L 374.964844 186.132812 L 327.371094 186.132812 Z M 327.371094 157.1875 " clip-rule="nonzero"/></clipPath><clipPath id="e990c6867b"><path d="M 374.429688 104.296875 L 374.964844 104.296875 L 374.964844 158.4375 L 374.429688 158.4375 Z M 374.429688 104.296875 " clip-rule="nonzero"/></clipPath><clipPath id="631432c2f5"><path d="M 343.820312 193.835938 L 374.964844 193.835938 L 374.964844 213.828125 L 343.820312 213.828125 Z M 343.820312 193.835938 " clip-rule="nonzero"/></clipPath><clipPath id="58e96ef9ca"><path d="M 374.429688 211.746094 L 374.964844 211.746094 L 374.964844 212.578125 L 374.429688 212.578125 Z M 374.429688 211.746094 " clip-rule="nonzero"/></clipPath><clipPath id="5c22e52b52"><path d="M 358.8125 175.722656 L 374.964844 175.722656 L 374.964844 186.757812 L 358.8125 186.757812 Z M 358.8125 175.722656 " clip-rule="nonzero"/></clipPath><clipPath id="3c21c8c389"><path d="M 374.429688 158.4375 L 374.964844 158.4375 L 374.964844 159.6875 L 374.429688 159.6875 Z M 374.429688 158.4375 " clip-rule="nonzero"/></clipPath><clipPath id="018d4d1256"><path d="M 327.371094 50.15625 L 374.964844 50.15625 L 374.964844 77.851562 L 327.371094 77.851562 Z M 327.371094 50.15625 " clip-rule="nonzero"/></clipPath><clipPath id="d8006860fa"><path d="M 320 50.15625 L 345 50.15625 L 345 65 L 320 65 Z M 320 50.15625 " clip-rule="nonzero"/></clipPath><clipPath id="82f61a4cef"><path d="M 343.820312 85.554688 L 374.964844 85.554688 L 374.964844 105.546875 L 343.820312 105.546875 Z M 343.820312 85.554688 " clip-rule="nonzero"/></clipPath><clipPath id="8658cf6b70"><path d="M 374.429688 103.464844 L 374.964844 103.464844 L 374.964844 104.296875 L 374.429688 104.296875 Z M 374.429688 103.464844 " clip-rule="nonzero"/></clipPath><clipPath id="e0bcab4b42"><path d="M 358.8125 67.441406 L 374.964844 67.441406 L 374.964844 78.476562 L 358.8125 78.476562 Z M 358.8125 67.441406 " clip-rule="nonzero"/></clipPath><clipPath id="9e6ab22164"><path d="M 374.429688 50.15625 L 374.964844 50.15625 L 374.964844 51.40625 L 374.429688 51.40625 Z M 374.429688 50.15625 " clip-rule="nonzero"/></clipPath><clipPath id="d80474b617"><path d="M 327.371094 238.398438 L 374.964844 238.398438 L 374.964844 294.414062 L 327.371094 294.414062 Z M 327.371094 238.398438 " clip-rule="nonzero"/></clipPath><clipPath id="77572fa63f"><path d="M 374.429688 212.371094 L 374.964844 212.371094 L 374.964844 266.71875 L 374.429688 266.71875 Z M 374.429688 212.371094 " clip-rule="nonzero"/></clipPath><clipPath id="067f6bdb5b"><path d="M 343.820312 302.117188 L 374.964844 302.117188 L 374.964844 320.859375 L 343.820312 320.859375 Z M 343.820312 302.117188 " clip-rule="nonzero"/></clipPath><clipPath id="af69a7bba9"><path d="M 374.429688 320.027344 L 374.964844 320.027344 L 374.964844 320.859375 L 374.429688 320.859375 Z M 374.429688 320.027344 " clip-rule="nonzero"/></clipPath><clipPath id="78317eadb9"><path d="M 358.8125 284.003906 L 374.964844 284.003906 L 374.964844 295 L 358.8125 295 Z M 358.8125 284.003906 " clip-rule="nonzero"/></clipPath><clipPath id="a40754c611"><path d="M 374.429688 266.71875 L 374.964844 266.71875 L 374.964844 267.96875 L 374.429688 267.96875 Z M 374.429688 266.71875 " clip-rule="nonzero"/></clipPath><clipPath id="f9467c0433"><path d="M 280.519531 360.839844 L 305.089844 360.839844 L 305.089844 374.90625 L 280.519531 374.90625 Z M 280.519531 360.839844 " clip-rule="nonzero"/></clipPath><clipPath id="50d97ef530"><path d="M 202.429688 266.511719 L 313.835938 266.511719 L 313.835938 374.90625 L 202.429688 374.90625 Z M 202.429688 266.511719 " clip-rule="nonzero"/></clipPath><clipPath id="619b0fc905"><path d="M 335.492188 320.652344 L 345.277344 320.652344 L 345.277344 374.90625 L 335.492188 374.90625 Z M 335.492188 320.652344 " clip-rule="nonzero"/></clipPath><clipPath id="d9dfa850a6"><path d="M 320 347.304688 L 328.828125 347.304688 L 328.828125 374.90625 L 320 374.90625 Z M 320 347.304688 " clip-rule="nonzero"/></clipPath><clipPath id="e03174dbaf"><path d="M 373.804688 320.652344 L 374.964844 320.652344 L 374.964844 374.90625 L 373.804688 374.90625 Z M 373.804688 320.652344 " clip-rule="nonzero"/></clipPath><clipPath id="2676e9540f"><path d="M 358.8125 320.652344 L 360.269531 320.652344 L 360.269531 374.90625 L 358.8125 374.90625 Z M 358.8125 320.652344 " clip-rule="nonzero"/></clipPath><clipPath id="ee99f77948"><path d="M 61.871094 49 L 63.332031 49 L 63.332031 50.0625 L 61.871094 50.0625 Z M 61.871094 49 " clip-rule="nonzero"/></clipPath><clipPath id="e7c267730e"><path d="M 93.109375 36 L 117.679688 36 L 117.679688 50.0625 L 93.109375 50.0625 Z M 93.109375 36 " clip-rule="nonzero"/></clipPath><clipPath id="617b681ed5"><path d="M 62.496094 22.460938 L 110.183594 22.460938 L 110.183594 50.0625 L 62.496094 50.0625 Z M 62.496094 22.460938 " clip-rule="nonzero"/></clipPath><clipPath id="f7460c6acd"><path d="M 132.464844 22.460938 L 141.417969 22.460938 L 141.417969 50.0625 L 132.464844 50.0625 Z M 132.464844 22.460938 " clip-rule="nonzero"/></clipPath><clipPath id="193f97c14e"><path d="M 171.195312 0 L 172.652344 0 L 172.652344 50.0625 L 171.195312 50.0625 Z M 171.195312 0 " clip-rule="nonzero"/></clipPath><clipPath id="a9074816aa"><path d="M 186.1875 0 L 220.128906 0 L 220.128906 50.0625 L 186.1875 50.0625 Z M 186.1875 0 " clip-rule="nonzero"/></clipPath><clipPath id="4ccb069c1b"><path d="M 148.082031 0 L 157.660156 0 L 157.660156 50.0625 L 148.082031 50.0625 Z M 148.082031 0 " clip-rule="nonzero"/></clipPath><clipPath id="e14779a1f9"><path d="M 15.019531 0 L 62.707031 0 L 62.707031 50.0625 L 15.019531 50.0625 Z M 15.019531 0 " clip-rule="nonzero"/></clipPath><clipPath id="2affa1f507"><path d="M 0.0273438 0 L 32.71875 0 L 32.71875 50.0625 L 0.0273438 50.0625 Z M 0.0273438 0 " clip-rule="nonzero"/></clipPath><clipPath id="096fdff224"><path d="M 280.519531 36 L 305.089844 36 L 305.089844 50.0625 L 280.519531 50.0625 Z M 280.519531 36 " clip-rule="nonzero"/></clipPath><clipPath id="ef856e5450"><path d="M 202.429688 0 L 313.835938 0 L 313.835938 50.0625 L 202.429688 50.0625 Z M 202.429688 0 " clip-rule="nonzero"/></clipPath><clipPath id="19ea11ec18"><path d="M 335.492188 0 L 345.277344 0 L 345.277344 50.0625 L 335.492188 50.0625 Z M 335.492188 0 " clip-rule="nonzero"/></clipPath><clipPath id="2b46efe4a7"><path d="M 320 22.460938 L 328.828125 22.460938 L 328.828125 50.0625 L 320 50.0625 Z M 320 22.460938 " clip-rule="nonzero"/></clipPath><clipPath id="134865dcde"><path d="M 373.804688 0 L 374.964844 0 L 374.964844 50.0625 L 373.804688 50.0625 Z M 373.804688 0 " clip-rule="nonzero"/></clipPath><clipPath id="4b76f37283"><path d="M 358.8125 0 L 360.269531 0 L 360.269531 50.0625 L 358.8125 50.0625 Z M 358.8125 0 " clip-rule="nonzero"/></clipPath></defs><rect x="-37.5" width="450" fill="#ffffff" y="-37.499999" height="449.999989" fill-opacity="1"/><rect x="-37.5" width="450" fill="#f2e7d5" y="-37.499999" height="449.999989" fill-opacity="1"/><path fill="#f7f7f7" d="M 47.242188 76.683594 L 46.308594 78.304688 L 46.308594 94.195312 L 39.429688 90.222656 L 38.804688 91.304688 L 46.308594 95.632812 L 46.308594 104.296875 L 47.558594 104.296875 L 47.558594 77.222656 C 47.558594 76.992188 47.429688 76.792969 47.242188 76.683594 " fill-opacity="1" fill-rule="nonzero"/><g clip-path="url(#9fa3849121)"><path fill="#f7f7f7" d="M 78.8125 78.308594 L 78.816406 78.308594 L 78.816406 50.15625 L 77.566406 50.15625 L 77.566406 76.144531 L 77.5625 76.140625 L 77.5625 104.296875 L 78.8125 104.296875 L 78.8125 78.308594 " fill-opacity="1" fill-rule="nonzero"/></g><g clip-path="url(#0b1fe0ca4a)"><path fill="#f7f7f7" d="M 54.433594 64.234375 L 61.9375 68.566406 L 61.9375 103.933594 L 61.3125 104.296875 L 63.183594 104.296875 L 63.183594 50.515625 L 63.808594 50.15625 L 62.558594 50.15625 L 61.9375 51.238281 L 61.9375 67.125 L 55.058594 63.152344 L 54.433594 64.234375 " fill-opacity="1" fill-rule="nonzero"/></g><path fill="#f7f7f7" d="M 39.429688 118.375 L 62.875 104.839844 C 63.074219 104.722656 63.183594 104.511719 63.183594 104.296875 L 61.3125 104.296875 L 47.554688 112.238281 L 47.554688 104.296875 L 46.304688 104.296875 L 46.304688 112.960938 L 38.804688 117.289062 L 39.429688 118.375 " fill-opacity="1" fill-rule="nonzero"/><path fill="#f7f7f7" d="M 55.058594 145.441406 L 77.566406 132.445312 L 78.816406 130.28125 L 54.433594 144.359375 L 55.058594 145.441406 " fill-opacity="1" fill-rule="nonzero"/><g clip-path="url(#94d7a23d74)"><path fill="#f7f7f7" d="M 46.308594 130.285156 L 47.242188 131.902344 L 47.246094 131.90625 L 93.191406 105.378906 L 93.816406 104.296875 L 93.816406 104.292969 L 95.046875 104.292969 L 94.421875 103.933594 L 94.421875 103.246094 L 94.441406 103.214844 L 94.441406 87.328125 L 101.308594 91.289062 L 101.300781 91.300781 L 123.808594 104.292969 L 126.308594 104.292969 L 101.941406 90.226562 L 101.945312 90.21875 L 94.441406 85.882812 L 94.441406 50.515625 L 95.066406 50.15625 L 93.191406 50.15625 L 93.191406 103.933594 L 92.570312 104.296875 L 92.566406 104.296875 L 78.8125 112.238281 L 78.8125 104.296875 L 77.5625 104.296875 L 77.5625 112.960938 L 46.933594 130.644531 L 46.308594 130.285156 " fill-opacity="1" fill-rule="nonzero"/></g><path fill="#f7f7f7" d="M 61.9375 157.351562 L 62.5625 158.433594 L 62.875 157.894531 L 63.1875 157.351562 L 62.5625 157.710938 L 61.9375 157.351562 " fill-opacity="1" fill-rule="nonzero"/><g clip-path="url(#16539b8373)"><path fill="#f7f7f7" d="M 109.121094 77.757812 L 109.117188 77.765625 L 109.113281 77.769531 L 155.0625 104.296875 L 156.3125 104.296875 L 155.6875 103.214844 L 141.929688 95.269531 L 148.808594 91.300781 L 148.183594 90.21875 L 140.683594 94.550781 L 110.050781 76.867188 L 110.050781 76.175781 L 110.070312 76.144531 L 110.070312 60.257812 L 116.9375 64.222656 L 116.929688 64.234375 L 140.371094 77.769531 C 140.574219 77.882812 140.808594 77.875 140.996094 77.765625 L 140.0625 76.144531 L 126.304688 68.203125 L 133.183594 64.230469 L 132.558594 63.148438 L 125.054688 67.480469 L 117.566406 63.160156 L 117.574219 63.148438 L 110.070312 58.816406 L 110.070312 50.15625 L 108.820312 50.15625 L 108.820312 77.226562 C 108.820312 77.453125 108.941406 77.648438 109.121094 77.757812 " fill-opacity="1" fill-rule="nonzero"/></g><path fill="#f7f7f7" d="M 109.132812 130.824219 L 63.1875 157.355469 L 62.5625 158.433594 L 63.808594 158.433594 L 77.566406 150.492188 L 77.566406 158.433594 L 78.816406 158.433594 L 78.816406 149.769531 L 109.445312 132.085938 L 110.070312 132.449219 L 109.136719 130.828125 L 109.132812 130.824219 " fill-opacity="1" fill-rule="nonzero"/><path fill="#f7f7f7" d="M 116.949219 144.359375 L 93.503906 157.894531 C 93.304688 158.011719 93.195312 158.21875 93.195312 158.433594 L 95.066406 158.433594 L 108.824219 150.492188 L 108.824219 158.433594 L 110.074219 158.433594 L 110.074219 149.769531 L 117.570312 145.4375 L 116.949219 144.359375 " fill-opacity="1" fill-rule="nonzero"/><path fill="#f7f7f7" d="M 77.5625 132.449219 L 101.945312 118.375 L 101.320312 117.289062 L 78.8125 130.285156 L 77.5625 132.449219 " fill-opacity="1" fill-rule="nonzero"/><path fill="#f7f7f7" d="M 93.503906 104.839844 L 93.191406 105.378906 L 93.816406 105.015625 L 94.441406 105.378906 L 93.816406 104.296875 L 93.503906 104.839844 " fill-opacity="1" fill-rule="nonzero"/><path fill="#f7f7f7" d="M 93.820312 104.296875 L 94.445312 105.378906 L 108.199219 113.320312 L 101.324219 117.289062 C 101.324219 117.289062 101.320312 117.292969 101.320312 117.292969 L 101.945312 118.375 L 109.449219 114.042969 L 140.078125 131.726562 L 140.078125 132.449219 L 141.015625 130.828125 L 141.015625 130.824219 L 95.066406 104.296875 L 93.820312 104.296875 " fill-opacity="1" fill-rule="nonzero"/><path fill="#f7f7f7" d="M 109.136719 130.824219 L 110.070312 132.445312 L 123.828125 140.386719 L 116.949219 144.359375 L 117.574219 145.441406 L 125.078125 141.109375 L 132.578125 145.4375 L 133.203125 144.359375 L 109.757812 130.824219 C 109.558594 130.707031 109.320312 130.71875 109.136719 130.824219 " fill-opacity="1" fill-rule="nonzero"/><path fill="#f7f7f7" d="M 123.824219 104.296875 L 148.207031 118.375 L 148.828125 117.289062 L 126.324219 104.296875 L 123.824219 104.296875 " fill-opacity="1" fill-rule="nonzero"/><path fill="#f7f7f7" d="M 156.332031 104.296875 L 155.082031 104.296875 L 155.707031 104.65625 L 155.707031 105.378906 L 156.332031 104.296875 " fill-opacity="1" fill-rule="nonzero"/><path fill="#f7f7f7" d="M 141.019531 130.824219 L 140.082031 132.445312 L 140.082031 148.332031 L 133.203125 144.359375 L 132.578125 145.445312 L 140.082031 149.773438 L 140.082031 158.433594 L 141.332031 158.433594 L 141.332031 131.363281 C 141.332031 131.132812 141.203125 130.933594 141.019531 130.824219 " fill-opacity="1" fill-rule="nonzero"/><path fill="#f7f7f7" d="M 172.585938 132.445312 L 172.589844 132.449219 L 172.589844 104.296875 L 171.339844 104.296875 L 171.339844 130.285156 L 171.335938 130.28125 L 171.335938 158.433594 L 172.585938 158.433594 L 172.585938 132.445312 " fill-opacity="1" fill-rule="nonzero"/><path fill="#f7f7f7" d="M 148.832031 117.292969 L 148.207031 118.375 L 155.710938 122.707031 L 155.710938 158.074219 L 155.085938 158.433594 L 156.960938 158.433594 L 156.960938 104.65625 L 157.582031 104.296875 L 157.585938 104.296875 L 171.339844 96.351562 L 171.339844 104.292969 L 172.589844 104.292969 L 172.589844 95.632812 L 203.21875 77.945312 L 203.84375 78.308594 L 202.910156 76.6875 L 202.90625 76.683594 L 156.960938 103.214844 L 155.710938 105.378906 L 155.710938 121.265625 L 148.832031 117.292969 " fill-opacity="1" fill-rule="nonzero"/><path fill="#f7f7f7" d="M 156.957031 158.433594 L 155.085938 158.433594 L 141.332031 166.378906 L 141.328125 158.4375 L 140.078125 158.4375 L 140.082031 167.101562 L 132.582031 171.433594 L 133.203125 172.511719 L 156.648438 158.976562 C 156.847656 158.863281 156.957031 158.652344 156.957031 158.433594 " fill-opacity="1" fill-rule="nonzero"/><path fill="#f7f7f7" d="M 148.832031 199.582031 L 171.339844 186.585938 L 172.589844 184.421875 L 148.207031 198.5 L 148.832031 199.582031 " fill-opacity="1" fill-rule="nonzero"/><path fill="#f7f7f7" d="M 156.648438 212.035156 L 156.960938 211.492188 L 156.335938 211.855469 L 155.710938 211.492188 L 156.335938 212.574219 L 156.648438 212.035156 " fill-opacity="1" fill-rule="nonzero"/><path fill="#f7f7f7" d="M 195.71875 144.355469 L 188.214844 140.023438 L 188.214844 104.65625 L 188.839844 104.296875 L 186.96875 104.296875 L 186.96875 158.074219 L 186.34375 158.433594 L 172.585938 166.378906 L 172.585938 158.4375 C 172.585938 158.4375 172.585938 158.4375 172.585938 158.433594 L 171.335938 158.433594 C 171.335938 158.4375 171.335938 158.4375 171.335938 158.4375 L 171.335938 167.101562 L 140.707031 184.785156 L 140.082031 184.425781 L 141.019531 186.042969 L 141.019531 186.046875 L 186.964844 159.519531 L 187.589844 158.433594 L 188.824219 158.433594 L 188.199219 158.074219 L 188.199219 157.386719 L 188.214844 157.355469 L 188.214844 141.46875 L 195.082031 145.429688 L 195.074219 145.441406 L 217.582031 158.433594 L 220.082031 158.433594 L 195.714844 144.367188 L 195.71875 144.359375 C 195.71875 144.355469 195.71875 144.355469 195.71875 144.355469 " fill-opacity="1" fill-rule="nonzero"/><path fill="#f7f7f7" d="M 210.722656 198.5 L 187.277344 212.035156 C 187.078125 212.148438 186.96875 212.359375 186.96875 212.574219 L 188.839844 212.574219 L 202.597656 204.632812 L 202.597656 212.574219 L 203.847656 212.574219 L 203.847656 203.910156 L 211.347656 199.582031 L 210.722656 198.5 " fill-opacity="1" fill-rule="nonzero"/><path fill="#f7f7f7" d="M 171.335938 186.589844 L 195.71875 172.511719 L 195.09375 171.429688 L 172.585938 184.425781 L 171.335938 186.589844 " fill-opacity="1" fill-rule="nonzero"/><path fill="#f7f7f7" d="M 171.339844 212.574219 L 172.589844 212.574219 L 172.589844 203.910156 L 203.21875 186.226562 L 203.84375 186.589844 L 202.910156 184.96875 L 202.90625 184.964844 L 156.960938 211.492188 L 156.335938 212.574219 L 155.710938 213.660156 L 155.710938 229.542969 L 148.832031 225.574219 L 148.207031 226.652344 C 148.207031 226.652344 148.207031 226.65625 148.207031 226.65625 L 155.710938 230.988281 L 155.710938 266.355469 L 155.085938 266.714844 L 156.960938 266.714844 L 156.960938 212.9375 L 157.582031 212.574219 L 157.585938 212.574219 L 171.339844 204.632812 L 171.339844 212.574219 " fill-opacity="1" fill-rule="nonzero"/><path fill="#f7f7f7" d="M 187.589844 158.4375 L 187.277344 158.976562 L 186.964844 159.519531 L 187.589844 159.15625 L 188.214844 159.519531 L 187.589844 158.4375 " fill-opacity="1" fill-rule="nonzero"/><path fill="#f7f7f7" d="M 220.097656 158.433594 L 217.597656 158.433594 L 241.9375 172.488281 L 241.921875 172.515625 L 249.425781 176.847656 L 249.425781 212.214844 L 248.800781 212.574219 L 250.671875 212.574219 L 250.671875 158.796875 L 251.296875 158.433594 L 250.050781 158.433594 L 250.050781 158.4375 L 248.859375 158.4375 L 249.484375 158.796875 L 249.484375 159.417969 L 249.425781 159.519531 L 249.425781 175.40625 L 242.589844 171.457031 L 242.605469 171.429688 L 220.097656 158.433594 " fill-opacity="1" fill-rule="nonzero"/><g clip-path="url(#a28eb42341)"><path fill="#f7f7f7" d="M 133.203125 64.234375 L 156.648438 50.699219 C 156.847656 50.582031 156.957031 50.371094 156.957031 50.15625 L 155.085938 50.15625 L 141.332031 58.101562 L 141.328125 50.15625 L 140.078125 50.15625 L 140.082031 58.820312 L 132.582031 63.152344 L 133.203125 64.234375 " fill-opacity="1" fill-rule="nonzero"/></g><path fill="#f7f7f7" d="M 148.832031 91.300781 L 171.339844 78.304688 L 172.589844 76.140625 L 148.207031 90.21875 L 148.832031 91.300781 " fill-opacity="1" fill-rule="nonzero"/><g clip-path="url(#9c92c849d8)"><path fill="#f7f7f7" d="M 140.082031 76.144531 L 141.019531 77.765625 L 141.019531 77.769531 L 186.964844 51.238281 L 187.589844 50.15625 L 186.34375 50.15625 L 172.585938 58.097656 L 172.585938 50.160156 C 172.585938 50.15625 172.585938 50.15625 172.585938 50.15625 L 171.335938 50.15625 C 171.335938 50.15625 171.335938 50.15625 171.335938 50.160156 L 171.335938 58.820312 L 140.707031 76.503906 L 140.082031 76.144531 " fill-opacity="1" fill-rule="nonzero"/></g><path fill="#f7f7f7" d="M 156.648438 103.753906 L 156.960938 103.214844 L 156.335938 103.574219 L 155.710938 103.214844 L 156.335938 104.292969 L 156.648438 103.753906 " fill-opacity="1" fill-rule="nonzero"/><path fill="#f7f7f7" d="M 210.722656 90.21875 L 187.277344 103.753906 C 187.078125 103.871094 186.96875 104.082031 186.96875 104.292969 L 188.839844 104.292969 L 202.597656 96.351562 L 202.597656 104.292969 L 203.847656 104.292969 L 203.847656 95.628906 L 211.347656 91.300781 L 210.722656 90.21875 " fill-opacity="1" fill-rule="nonzero"/><path fill="#f7f7f7" d="M 171.335938 78.308594 L 195.71875 64.234375 L 195.09375 63.152344 L 172.585938 76.144531 L 171.335938 78.308594 " fill-opacity="1" fill-rule="nonzero"/><g clip-path="url(#92361d4b62)"><path fill="#f7f7f7" d="M 187.589844 50.15625 L 187.277344 50.699219 L 186.964844 51.238281 L 187.589844 50.878906 L 188.214844 51.238281 L 187.589844 50.15625 " fill-opacity="1" fill-rule="nonzero"/></g><g clip-path="url(#3dafba5aa8)"><path fill="#f7f7f7" d="M 201.976562 59.179688 L 195.097656 63.152344 L 195.71875 64.234375 C 195.71875 64.234375 195.722656 64.234375 195.722656 64.234375 L 203.222656 59.902344 L 233.851562 77.585938 L 233.851562 78.210938 L 233.796875 78.304688 L 233.796875 94.195312 L 226.960938 90.246094 L 226.976562 90.21875 L 203.535156 76.683594 C 203.332031 76.570312 203.09375 76.578125 202.910156 76.683594 L 203.84375 78.304688 L 217.601562 86.25 L 210.722656 90.21875 L 211.347656 91.304688 L 218.851562 86.96875 L 226.308594 91.277344 L 226.292969 91.304688 L 233.796875 95.632812 L 233.796875 104.296875 L 235.046875 104.296875 L 235.046875 77.222656 C 235.046875 77.011719 234.9375 76.828125 234.773438 76.714844 L 234.789062 76.6875 L 234.789062 76.683594 L 188.84375 50.15625 L 187.59375 50.15625 L 188.21875 51.238281 L 201.976562 59.179688 " fill-opacity="1" fill-rule="nonzero"/></g><path fill="#f7f7f7" d="M 47.558594 212.574219 L 47.558594 185.503906 C 47.558594 185.273438 47.429688 185.074219 47.242188 184.964844 L 46.308594 186.585938 L 46.308594 202.472656 L 39.429688 198.5 L 38.804688 199.582031 L 46.308594 203.914062 L 46.308594 212.574219 L 47.558594 212.574219 " fill-opacity="1" fill-rule="nonzero"/><path fill="#f7f7f7" d="M 55.058594 171.433594 L 54.433594 172.515625 L 61.9375 176.847656 L 61.9375 212.214844 L 61.3125 212.574219 L 63.183594 212.574219 L 63.183594 158.796875 L 63.808594 158.433594 L 62.558594 158.433594 L 61.9375 159.519531 L 61.9375 175.40625 L 55.058594 171.433594 " fill-opacity="1" fill-rule="nonzero"/><path fill="#f7f7f7" d="M 47.246094 240.1875 L 93.191406 213.660156 L 93.816406 212.574219 L 95.046875 212.574219 L 94.421875 212.214844 L 94.421875 211.527344 L 94.441406 211.492188 L 94.441406 195.609375 L 101.308594 199.570312 L 101.300781 199.582031 L 123.808594 212.574219 L 126.308594 212.574219 L 101.941406 198.507812 L 101.945312 198.496094 L 94.441406 194.164062 L 94.441406 158.796875 L 95.066406 158.433594 L 93.191406 158.433594 L 93.191406 212.214844 L 92.570312 212.574219 L 92.566406 212.574219 L 78.8125 220.519531 L 78.8125 212.578125 C 78.8125 212.578125 78.8125 212.578125 78.8125 212.574219 L 77.5625 212.574219 C 77.5625 212.578125 77.5625 212.578125 77.5625 212.578125 L 77.5625 221.238281 L 46.933594 238.925781 L 46.308594 238.5625 L 47.242188 240.183594 L 47.246094 240.1875 " fill-opacity="1" fill-rule="nonzero"/><path fill="#f7f7f7" d="M 39.429688 226.652344 L 62.875 213.117188 C 63.074219 213 63.183594 212.792969 63.183594 212.578125 L 61.3125 212.578125 L 47.554688 220.519531 L 47.554688 212.578125 L 46.304688 212.578125 L 46.304688 221.242188 L 38.804688 225.570312 L 39.429688 226.652344 " fill-opacity="1" fill-rule="nonzero"/><path fill="#f7f7f7" d="M 77.566406 240.726562 L 78.816406 238.5625 L 54.433594 252.636719 L 55.058594 253.71875 L 77.566406 240.726562 " fill-opacity="1" fill-rule="nonzero"/><path fill="#f7f7f7" d="M 62.875 266.171875 L 63.1875 265.632812 L 62.5625 265.992188 L 61.9375 265.632812 L 62.5625 266.714844 L 62.875 266.171875 " fill-opacity="1" fill-rule="nonzero"/><path fill="#f7f7f7" d="M 140.371094 186.046875 C 140.574219 186.164062 140.808594 186.15625 140.996094 186.046875 L 140.0625 184.425781 L 126.304688 176.484375 L 133.183594 172.511719 L 132.558594 171.429688 L 125.054688 175.761719 L 117.566406 171.441406 L 117.574219 171.429688 L 110.070312 167.097656 L 110.070312 158.433594 L 108.820312 158.433594 L 108.820312 185.507812 C 108.820312 185.730469 108.941406 185.925781 109.121094 186.039062 L 109.113281 186.046875 L 155.0625 212.574219 L 156.3125 212.574219 L 155.6875 211.492188 L 141.929688 203.550781 L 148.808594 199.582031 C 148.808594 199.582031 148.808594 199.578125 148.808594 199.578125 L 148.183594 198.496094 C 148.183594 198.496094 148.183594 198.496094 148.183594 198.5 L 140.683594 202.828125 L 110.050781 185.144531 L 110.050781 184.457031 L 110.070312 184.425781 L 110.070312 168.539062 L 116.9375 172.503906 L 116.929688 172.511719 L 140.371094 186.046875 " fill-opacity="1" fill-rule="nonzero"/><path fill="#f7f7f7" d="M 77.566406 184.425781 L 77.5625 184.421875 L 77.5625 212.574219 L 78.8125 212.574219 L 78.8125 186.585938 L 78.816406 186.589844 L 78.816406 158.433594 L 77.566406 158.433594 L 77.566406 184.425781 " fill-opacity="1" fill-rule="nonzero"/><path fill="#f7f7f7" d="M 116.949219 252.636719 L 93.503906 266.171875 C 93.304688 266.289062 93.195312 266.5 93.195312 266.714844 L 95.066406 266.714844 L 108.824219 258.773438 L 108.824219 266.714844 L 110.074219 266.714844 L 110.074219 258.050781 L 117.570312 253.71875 L 116.949219 252.636719 " fill-opacity="1" fill-rule="nonzero"/><path fill="#f7f7f7" d="M 77.5625 240.730469 L 101.945312 226.652344 L 101.320312 225.570312 L 78.8125 238.566406 L 77.5625 240.730469 " fill-opacity="1" fill-rule="nonzero"/><path fill="#f7f7f7" d="M 78.816406 266.714844 L 78.816406 258.050781 L 109.445312 240.367188 L 110.070312 240.726562 L 109.136719 239.105469 L 109.132812 239.105469 L 63.1875 265.632812 L 62.5625 266.714844 L 63.808594 266.714844 L 77.566406 258.773438 L 77.566406 266.714844 L 78.816406 266.714844 " fill-opacity="1" fill-rule="nonzero"/><path fill="#f7f7f7" d="M 93.816406 212.578125 L 93.191406 213.660156 L 93.816406 213.296875 L 94.441406 213.660156 L 93.816406 212.578125 " fill-opacity="1" fill-rule="nonzero"/><path fill="#f7f7f7" d="M 148.828125 225.570312 L 126.324219 212.578125 L 123.824219 212.578125 L 148.207031 226.652344 L 148.828125 225.570312 " fill-opacity="1" fill-rule="nonzero"/><path fill="#f7f7f7" d="M 125.078125 249.390625 L 132.578125 253.71875 L 133.203125 252.636719 L 109.757812 239.101562 C 109.558594 238.988281 109.320312 238.996094 109.136719 239.105469 L 110.070312 240.726562 L 123.828125 248.667969 L 116.949219 252.640625 L 117.574219 253.722656 L 125.078125 249.390625 " fill-opacity="1" fill-rule="nonzero"/><path fill="#f7f7f7" d="M 141.015625 239.105469 L 95.066406 212.574219 L 93.820312 212.574219 L 94.445312 213.660156 L 108.199219 221.601562 L 101.324219 225.570312 C 101.324219 225.570312 101.320312 225.570312 101.320312 225.570312 L 101.945312 226.652344 L 109.449219 222.320312 L 140.078125 240.007812 L 140.078125 240.726562 L 141.015625 239.105469 " fill-opacity="1" fill-rule="nonzero"/><path fill="#f7f7f7" d="M 156.332031 212.578125 L 155.082031 212.578125 L 155.707031 212.9375 L 155.707031 213.660156 L 156.332031 212.578125 " fill-opacity="1" fill-rule="nonzero"/><path fill="#f7f7f7" d="M 140.082031 266.714844 L 141.332031 266.714844 L 141.332031 239.644531 C 141.332031 239.414062 141.203125 239.214844 141.019531 239.105469 L 140.082031 240.726562 L 140.082031 256.613281 L 133.203125 252.640625 L 132.578125 253.722656 L 140.082031 258.054688 L 140.082031 266.714844 " fill-opacity="1" fill-rule="nonzero"/><path fill="#f7f7f7" d="M 133.203125 280.792969 L 156.648438 267.257812 C 156.847656 267.140625 156.957031 266.929688 156.957031 266.714844 L 155.085938 266.714844 L 141.332031 274.660156 L 141.328125 266.714844 L 140.078125 266.714844 L 140.082031 275.382812 L 132.582031 279.710938 L 133.203125 280.792969 " fill-opacity="1" fill-rule="nonzero"/><path fill="#f7f7f7" d="M 172.589844 292.703125 L 148.207031 306.777344 L 148.832031 307.859375 L 171.339844 294.867188 L 172.589844 292.703125 " fill-opacity="1" fill-rule="nonzero"/><path fill="#f7f7f7" d="M 156.648438 320.3125 L 156.960938 319.773438 L 156.335938 320.132812 L 155.710938 319.773438 L 156.335938 320.855469 L 156.648438 320.3125 " fill-opacity="1" fill-rule="nonzero"/><path fill="#f7f7f7" d="M 195.71875 252.636719 L 188.214844 248.304688 L 188.214844 212.9375 L 188.839844 212.574219 L 186.96875 212.574219 L 186.96875 266.355469 L 186.34375 266.714844 L 172.585938 274.660156 L 172.585938 240.726562 L 172.589844 240.730469 L 172.589844 212.574219 L 171.339844 212.574219 L 171.339844 238.566406 L 171.335938 238.5625 L 171.335938 275.378906 L 140.707031 293.0625 L 140.082031 292.703125 L 141.019531 294.324219 L 186.964844 267.796875 L 187.589844 266.714844 L 188.824219 266.714844 L 188.199219 266.355469 L 188.199219 265.667969 L 188.214844 265.632812 L 188.214844 249.746094 L 195.082031 253.710938 L 195.074219 253.71875 L 217.582031 266.714844 L 220.082031 266.714844 L 195.714844 252.648438 L 195.71875 252.636719 " fill-opacity="1" fill-rule="nonzero"/><path fill="#f7f7f7" d="M 210.722656 306.777344 L 187.277344 320.3125 C 187.078125 320.429688 186.96875 320.640625 186.96875 320.855469 L 188.839844 320.855469 L 202.597656 312.910156 L 202.597656 320.855469 L 203.847656 320.855469 L 203.847656 312.191406 L 211.347656 307.859375 L 210.722656 306.777344 " fill-opacity="1" fill-rule="nonzero"/><path fill="#f7f7f7" d="M 195.09375 279.710938 L 172.585938 292.707031 L 171.335938 294.871094 L 195.71875 280.792969 L 195.09375 279.710938 " fill-opacity="1" fill-rule="nonzero"/><path fill="#f7f7f7" d="M 186.964844 267.796875 L 187.589844 267.4375 L 188.214844 267.796875 L 187.589844 266.714844 L 187.277344 267.257812 L 186.964844 267.796875 " fill-opacity="1" fill-rule="nonzero"/><path fill="#f7f7f7" d="M 203.84375 294.867188 L 202.910156 293.246094 L 202.90625 293.246094 L 156.960938 319.773438 L 156.335938 320.855469 L 157.585938 320.855469 L 171.339844 312.914062 L 171.339844 320.855469 L 172.589844 320.855469 L 172.589844 312.191406 L 203.21875 294.507812 L 203.84375 294.867188 " fill-opacity="1" fill-rule="nonzero"/><path fill="#f7f7f7" d="M 46.308594 320.855469 L 47.558594 320.855469 L 47.558594 293.785156 C 47.558594 293.554688 47.429688 293.355469 47.242188 293.246094 L 46.308594 294.867188 L 46.308594 310.75 L 39.429688 306.78125 L 38.804688 307.863281 L 46.308594 312.195312 L 46.308594 320.855469 " fill-opacity="1" fill-rule="nonzero"/><path fill="#f7f7f7" d="M 39.429688 334.933594 L 62.875 321.394531 C 63.074219 321.28125 63.183594 321.070312 63.183594 320.855469 L 61.3125 320.855469 L 47.554688 328.800781 L 47.554688 320.855469 L 46.304688 320.855469 L 46.304688 329.519531 L 38.804688 333.851562 L 39.429688 334.933594 " fill-opacity="1" fill-rule="nonzero"/><path fill="#f7f7f7" d="M 78.816406 346.839844 L 54.433594 360.917969 L 55.058594 362 L 77.566406 349.007812 L 78.816406 346.839844 " fill-opacity="1" fill-rule="nonzero"/><g clip-path="url(#1e99acd153)"><path fill="#f7f7f7" d="M 62.5625 374.996094 L 62.875 374.453125 L 63.1875 373.914062 L 62.5625 374.273438 L 61.9375 373.914062 L 62.5625 374.996094 " fill-opacity="1" fill-rule="nonzero"/></g><path fill="#f7f7f7" d="M 156.3125 320.855469 L 155.6875 319.773438 L 141.929688 311.832031 L 148.808594 307.859375 L 148.183594 306.777344 L 140.683594 311.109375 L 110.050781 293.425781 L 110.050781 292.738281 L 110.070312 292.707031 L 110.070312 276.820312 L 116.933594 280.78125 L 116.929688 280.792969 L 140.371094 294.328125 C 140.574219 294.445312 140.808594 294.433594 140.996094 294.324219 L 140.0625 292.707031 L 126.304688 284.761719 L 133.183594 280.789062 L 132.558594 279.707031 L 125.054688 284.042969 L 117.566406 279.71875 L 117.574219 279.707031 L 110.070312 275.375 L 110.070312 266.714844 L 108.820312 266.714844 L 108.820312 293.785156 C 108.820312 294.011719 108.941406 294.207031 109.121094 294.316406 L 109.117188 294.324219 L 109.113281 294.324219 L 155.0625 320.855469 L 156.3125 320.855469 " fill-opacity="1" fill-rule="nonzero"/><path fill="#f7f7f7" d="M 101.941406 306.789062 L 101.945312 306.777344 L 94.441406 302.445312 L 94.441406 267.078125 L 95.066406 266.714844 L 93.191406 266.714844 L 93.191406 320.496094 L 92.570312 320.855469 L 92.566406 320.855469 L 78.8125 328.800781 L 78.8125 320.855469 L 77.5625 320.855469 L 77.5625 329.519531 L 46.933594 347.203125 L 46.308594 346.84375 L 47.242188 348.464844 L 47.246094 348.464844 L 93.191406 321.9375 L 93.816406 320.855469 L 95.046875 320.855469 L 94.421875 320.496094 L 94.421875 319.808594 L 94.441406 319.773438 L 94.441406 303.886719 L 101.304688 307.851562 L 101.300781 307.859375 L 123.808594 320.855469 L 126.308594 320.855469 L 101.941406 306.789062 " fill-opacity="1" fill-rule="nonzero"/><path fill="#f7f7f7" d="M 77.566406 292.703125 L 77.5625 292.703125 L 77.5625 320.855469 L 78.8125 320.855469 L 78.8125 294.867188 L 78.816406 294.871094 L 78.816406 266.714844 L 77.566406 266.714844 L 77.566406 292.703125 " fill-opacity="1" fill-rule="nonzero"/><path fill="#f7f7f7" d="M 63.808594 266.714844 L 62.558594 266.714844 L 61.9375 267.796875 L 61.9375 283.683594 L 55.058594 279.710938 L 54.433594 280.792969 C 54.433594 280.792969 54.433594 280.796875 54.433594 280.796875 L 61.9375 285.125 L 61.9375 320.496094 L 61.3125 320.855469 L 63.183594 320.855469 L 63.183594 267.078125 L 63.808594 266.714844 " fill-opacity="1" fill-rule="nonzero"/><g clip-path="url(#8fe9c1322d)"><path fill="#f7f7f7" d="M 116.949219 360.917969 L 93.503906 374.453125 C 93.304688 374.570312 93.195312 374.78125 93.195312 374.996094 L 95.066406 374.996094 L 108.824219 367.050781 L 108.824219 374.996094 L 110.074219 374.996094 L 110.074219 366.332031 L 117.570312 362 L 116.949219 360.917969 " fill-opacity="1" fill-rule="nonzero"/></g><path fill="#f7f7f7" d="M 101.320312 333.851562 L 78.8125 346.84375 L 77.5625 349.011719 L 101.945312 334.929688 L 101.320312 333.851562 " fill-opacity="1" fill-rule="nonzero"/><g clip-path="url(#4f8c65c1b8)"><path fill="#f7f7f7" d="M 110.070312 349.007812 L 109.136719 347.386719 L 109.132812 347.382812 L 63.1875 373.914062 L 62.5625 374.996094 L 63.808594 374.996094 L 77.566406 367.050781 L 77.566406 374.992188 C 77.566406 374.992188 77.566406 374.996094 77.566406 374.996094 L 78.816406 374.996094 L 78.816406 366.332031 L 109.445312 348.644531 L 110.070312 349.007812 " fill-opacity="1" fill-rule="nonzero"/></g><path fill="#f7f7f7" d="M 93.816406 320.855469 L 93.503906 321.394531 L 93.191406 321.9375 L 93.816406 321.578125 L 94.441406 321.9375 L 93.816406 320.855469 " fill-opacity="1" fill-rule="nonzero"/><path fill="#f7f7f7" d="M 109.757812 347.382812 C 109.558594 347.265625 109.320312 347.277344 109.136719 347.382812 L 110.070312 349.007812 L 123.828125 356.949219 L 116.949219 360.917969 L 117.574219 362 L 125.078125 357.667969 L 132.578125 362 L 133.203125 360.917969 L 109.757812 347.382812 " fill-opacity="1" fill-rule="nonzero"/><path fill="#f7f7f7" d="M 126.324219 320.855469 L 123.824219 320.855469 L 148.207031 334.929688 L 148.828125 333.851562 L 126.324219 320.855469 " fill-opacity="1" fill-rule="nonzero"/><path fill="#f7f7f7" d="M 141.015625 347.386719 L 141.015625 347.382812 L 95.066406 320.855469 L 93.820312 320.855469 L 94.445312 321.9375 L 108.199219 329.878906 L 101.324219 333.851562 C 101.324219 333.851562 101.320312 333.851562 101.320312 333.851562 L 101.945312 334.933594 L 109.449219 330.601562 L 140.078125 348.285156 L 140.078125 349.007812 L 141.015625 347.386719 " fill-opacity="1" fill-rule="nonzero"/><path fill="#f7f7f7" d="M 156.332031 320.855469 L 155.082031 320.855469 L 155.707031 321.21875 L 155.707031 321.9375 L 156.332031 320.855469 " fill-opacity="1" fill-rule="nonzero"/><g clip-path="url(#3ef996a908)"><path fill="#f7f7f7" d="M 141.019531 347.386719 L 140.082031 349.007812 L 140.082031 364.890625 L 133.203125 360.921875 L 132.578125 362 L 140.082031 366.335938 L 140.082031 374.996094 L 141.332031 374.996094 L 141.332031 347.921875 C 141.332031 347.691406 141.203125 347.496094 141.019531 347.386719 " fill-opacity="1" fill-rule="nonzero"/></g><g clip-path="url(#2df06b122e)"><path fill="#f7f7f7" d="M 171.339844 346.84375 L 171.335938 346.84375 L 171.335938 374.996094 L 172.585938 374.996094 L 172.585938 349.007812 L 172.589844 349.011719 L 172.589844 320.855469 L 171.339844 320.855469 L 171.339844 346.84375 " fill-opacity="1" fill-rule="nonzero"/></g><g clip-path="url(#ac9b7c2f1d)"><path fill="#f7f7f7" d="M 195.71875 360.917969 L 188.214844 356.585938 L 188.214844 321.214844 L 188.839844 320.855469 L 186.96875 320.855469 L 186.96875 374.636719 L 186.34375 374.996094 L 188.824219 374.996094 L 188.199219 374.632812 L 188.199219 373.945312 L 188.214844 373.914062 L 188.214844 358.027344 L 195.082031 361.992188 L 195.074219 362 L 217.582031 374.996094 L 220.082031 374.996094 L 195.714844 360.925781 L 195.71875 360.917969 " fill-opacity="1" fill-rule="nonzero"/></g><g clip-path="url(#d4e4941bb1)"><path fill="#f7f7f7" d="M 157.582031 320.855469 L 156.335938 320.855469 L 155.710938 321.9375 L 155.710938 337.824219 L 148.832031 333.851562 L 148.207031 334.933594 L 155.710938 339.265625 L 155.710938 374.636719 L 155.085938 374.996094 L 156.960938 374.996094 L 156.960938 321.214844 L 157.582031 320.855469 " fill-opacity="1" fill-rule="nonzero"/></g><path fill="#f7f7f7" d="M 15.324219 131.90625 L 61.273438 158.433594 L 62.523438 158.433594 L 61.898438 157.355469 L 48.140625 149.410156 L 55.019531 145.4375 L 54.394531 144.359375 L 46.890625 148.691406 L 16.261719 131.003906 L 16.261719 130.316406 L 16.28125 130.285156 L 16.28125 114.398438 L 23.144531 118.363281 L 23.136719 118.375 L 46.582031 131.910156 C 46.78125 132.023438 47.019531 132.015625 47.207031 131.90625 L 46.269531 130.285156 L 32.511719 122.34375 L 39.390625 118.371094 L 38.765625 117.289062 L 31.261719 121.621094 L 23.777344 117.300781 L 23.785156 117.289062 L 16.28125 112.957031 L 16.28125 104.296875 L 15.03125 104.296875 L 15.03125 131.367188 C 15.03125 131.589844 15.152344 131.789062 15.332031 131.894531 L 15.328125 131.902344 L 15.324219 131.90625 " fill-opacity="1" fill-rule="nonzero"/><path fill="#f7f7f7" d="M 0.632812 158.433594 L 1.257812 158.433594 L 0.632812 158.074219 L 0.632812 157.386719 L 0.652344 157.355469 L 0.652344 141.46875 L 7.515625 145.429688 L 7.511719 145.441406 L 30.019531 158.433594 L 32.515625 158.433594 L 8.152344 144.367188 L 8.15625 144.359375 C 8.15625 144.355469 8.15625 144.355469 8.15625 144.355469 L 0.652344 140.023438 L 0.652344 104.65625 L 1.277344 104.296875 L 0.0273438 104.296875 L 0.0273438 158.433594 L 0.632812 158.433594 " fill-opacity="1" fill-rule="nonzero"/><path fill="#f7f7f7" d="M 15.03125 204.632812 L 15.03125 212.574219 L 16.28125 212.574219 L 16.28125 203.910156 L 23.78125 199.582031 L 23.15625 198.5 L 0.0273438 211.851562 L 0.0273438 212.574219 L 1.273438 212.574219 L 15.03125 204.632812 " fill-opacity="1" fill-rule="nonzero"/><path fill="#f7f7f7" d="M 7.527344 171.429688 L 0.0273438 175.761719 L 0.0273438 177.207031 L 8.152344 172.511719 L 7.527344 171.429688 " fill-opacity="1" fill-rule="nonzero"/><path fill="#f7f7f7" d="M 16.28125 186.589844 L 15.34375 184.96875 L 15.34375 184.964844 L 0.0273438 193.808594 L 0.0273438 195.25 L 15.65625 186.226562 L 16.28125 186.589844 " fill-opacity="1" fill-rule="nonzero"/><path fill="#f7f7f7" d="M 0.0273438 158.4375 L 0.0273438 159.15625 L 0.652344 159.519531 Z M 0.0273438 158.4375 " fill-opacity="1" fill-rule="nonzero"/><path fill="#f7f7f7" d="M 54.414062 172.511719 L 55.039062 171.429688 L 32.53125 158.433594 L 30.035156 158.433594 L 54.414062 172.511719 " fill-opacity="1" fill-rule="nonzero"/><path fill="#f7f7f7" d="M 23.785156 199.582031 L 31.285156 195.25 L 38.789062 199.582031 L 39.414062 198.5 L 15.96875 184.960938 C 15.769531 184.847656 15.53125 184.859375 15.34375 184.964844 L 16.28125 186.585938 L 30.039062 194.527344 L 23.160156 198.5 L 23.785156 199.582031 " fill-opacity="1" fill-rule="nonzero"/><path fill="#f7f7f7" d="M 7.53125 171.433594 L 8.15625 172.515625 C 8.15625 172.511719 8.15625 172.511719 8.15625 172.511719 L 15.660156 168.183594 L 46.289062 185.867188 L 46.289062 186.589844 L 47.222656 184.96875 L 47.226562 184.964844 L 1.277344 158.433594 L 0.0273438 158.433594 L 0.652344 159.519531 L 14.410156 167.460938 L 7.53125 171.433594 " fill-opacity="1" fill-rule="nonzero"/><path fill="#f7f7f7" d="M 62.542969 158.4375 L 61.292969 158.4375 L 61.917969 158.796875 L 61.917969 159.519531 L 62.542969 158.4375 " fill-opacity="1" fill-rule="nonzero"/><path fill="#f7f7f7" d="M 15.03125 96.351562 L 15.03125 104.292969 L 16.28125 104.292969 L 16.28125 95.628906 L 23.78125 91.300781 L 23.15625 90.21875 L 0.0273438 103.570312 L 0.0273438 104.292969 L 1.273438 104.292969 L 15.03125 96.351562 " fill-opacity="1" fill-rule="nonzero"/><path fill="#f7f7f7" d="M 7.527344 63.152344 L 0.0273438 67.484375 L 0.0273438 68.925781 L 8.152344 64.234375 L 7.527344 63.152344 " fill-opacity="1" fill-rule="nonzero"/><path fill="#f7f7f7" d="M 16.28125 78.308594 L 15.34375 76.6875 L 15.34375 76.683594 L 0.0273438 85.527344 L 0.0273438 86.96875 L 15.65625 77.945312 L 16.28125 78.308594 " fill-opacity="1" fill-rule="nonzero"/><g clip-path="url(#f5b30c66f4)"><path fill="#f7f7f7" d="M 0.0273438 50.160156 L 0.0273438 50.878906 L 0.652344 51.238281 Z M 0.0273438 50.160156 " fill-opacity="1" fill-rule="nonzero"/></g><g clip-path="url(#34cebba99c)"><path fill="#f7f7f7" d="M 14.410156 59.179688 L 7.53125 63.152344 L 8.15625 64.234375 L 15.660156 59.902344 L 46.289062 77.585938 L 46.289062 78.308594 L 47.222656 76.6875 L 47.226562 76.683594 L 1.277344 50.15625 L 0.0273438 50.15625 L 0.652344 51.238281 L 14.410156 59.179688 " fill-opacity="1" fill-rule="nonzero"/></g><g clip-path="url(#3e1ea56778)"><path fill="#f7f7f7" d="M 55.039062 63.152344 L 32.53125 50.15625 L 30.035156 50.15625 L 54.414062 64.234375 L 55.039062 63.152344 " fill-opacity="1" fill-rule="nonzero"/></g><path fill="#f7f7f7" d="M 23.785156 91.304688 L 31.285156 86.96875 L 38.789062 91.300781 L 39.414062 90.21875 L 15.96875 76.683594 C 15.769531 76.570312 15.53125 76.578125 15.34375 76.683594 L 16.28125 78.304688 L 30.039062 86.25 L 23.160156 90.21875 L 23.785156 91.304688 " fill-opacity="1" fill-rule="nonzero"/><g clip-path="url(#45e8acda14)"><path fill="#f7f7f7" d="M 61.917969 51.238281 L 62.542969 50.15625 L 61.292969 50.15625 L 61.917969 50.519531 L 61.917969 51.238281 " fill-opacity="1" fill-rule="nonzero"/></g><path fill="#f7f7f7" d="M 15.324219 240.1875 L 61.273438 266.714844 L 62.523438 266.714844 L 61.898438 265.632812 L 48.140625 257.691406 L 55.019531 253.71875 L 54.394531 252.636719 L 46.890625 256.96875 L 16.261719 239.285156 L 16.261719 238.597656 L 16.28125 238.566406 L 16.28125 222.679688 L 23.144531 226.640625 L 23.136719 226.652344 L 46.582031 240.1875 C 46.78125 240.304688 47.019531 240.292969 47.207031 240.1875 L 46.269531 238.566406 L 32.511719 230.621094 L 39.390625 226.652344 L 38.765625 225.570312 L 31.261719 229.902344 L 23.777344 225.578125 L 23.785156 225.566406 L 16.28125 221.238281 L 16.28125 212.574219 L 15.03125 212.574219 L 15.03125 239.648438 C 15.03125 239.871094 15.152344 240.066406 15.332031 240.175781 L 15.328125 240.183594 L 15.324219 240.1875 " fill-opacity="1" fill-rule="nonzero"/><path fill="#f7f7f7" d="M 0.632812 266.714844 L 1.257812 266.714844 L 0.632812 266.355469 L 0.632812 265.667969 L 0.652344 265.632812 L 0.652344 249.746094 L 7.515625 253.710938 L 7.511719 253.71875 L 30.019531 266.714844 L 32.515625 266.714844 L 8.152344 252.648438 L 8.15625 252.636719 L 0.652344 248.304688 L 0.652344 212.9375 L 1.277344 212.574219 L 0.0273438 212.574219 L 0.0273438 266.714844 L 0.632812 266.714844 " fill-opacity="1" fill-rule="nonzero"/><path fill="#f7f7f7" d="M 15.03125 312.910156 L 15.03125 320.855469 L 16.28125 320.855469 L 16.28125 312.191406 L 23.78125 307.859375 L 23.15625 306.777344 L 0.0273438 320.132812 L 0.0273438 320.855469 L 1.273438 320.855469 L 15.03125 312.910156 " fill-opacity="1" fill-rule="nonzero"/><path fill="#f7f7f7" d="M 7.527344 279.710938 L 0.0273438 284.042969 L 0.0273438 285.484375 L 8.152344 280.792969 L 7.527344 279.710938 " fill-opacity="1" fill-rule="nonzero"/><path fill="#f7f7f7" d="M 16.28125 294.867188 L 15.34375 293.246094 L 0.0273438 302.085938 L 0.0273438 303.53125 L 15.65625 294.507812 L 16.28125 294.867188 " fill-opacity="1" fill-rule="nonzero"/><path fill="#f7f7f7" d="M 0.0273438 266.71875 L 0.0273438 267.4375 L 0.652344 267.796875 Z M 0.0273438 266.71875 " fill-opacity="1" fill-rule="nonzero"/><path fill="#f7f7f7" d="M 54.414062 280.792969 L 55.039062 279.710938 L 32.53125 266.714844 L 30.035156 266.714844 L 54.414062 280.792969 " fill-opacity="1" fill-rule="nonzero"/><path fill="#f7f7f7" d="M 23.785156 307.859375 L 31.285156 303.53125 L 38.789062 307.859375 L 39.414062 306.777344 L 15.96875 293.242188 C 15.769531 293.125 15.53125 293.136719 15.34375 293.246094 L 16.28125 294.867188 L 30.039062 302.808594 L 23.160156 306.78125 L 23.785156 307.859375 " fill-opacity="1" fill-rule="nonzero"/><path fill="#f7f7f7" d="M 7.53125 279.710938 L 8.15625 280.792969 L 15.660156 276.460938 L 46.289062 294.148438 L 46.289062 294.867188 L 47.222656 293.246094 L 47.226562 293.246094 L 1.277344 266.714844 L 0.0273438 266.714844 L 0.652344 267.796875 L 14.410156 275.742188 L 7.53125 279.710938 " fill-opacity="1" fill-rule="nonzero"/><path fill="#f7f7f7" d="M 62.542969 266.714844 L 61.292969 266.714844 L 61.917969 267.078125 L 61.917969 267.796875 L 62.542969 266.714844 " fill-opacity="1" fill-rule="nonzero"/><g clip-path="url(#a7af290c5e)"><path fill="#f7f7f7" d="M 48.140625 365.972656 L 55.019531 362 L 54.394531 360.917969 L 46.890625 365.246094 L 16.261719 347.566406 L 16.261719 346.875 L 16.28125 346.84375 L 16.28125 330.957031 L 23.144531 334.921875 L 23.136719 334.933594 L 46.582031 348.46875 C 46.78125 348.582031 47.019531 348.574219 47.207031 348.464844 L 46.269531 346.847656 L 32.511719 338.902344 L 39.390625 334.929688 L 38.765625 333.847656 L 31.261719 338.183594 L 23.777344 333.859375 L 23.785156 333.847656 L 16.28125 329.515625 L 16.28125 320.855469 L 15.03125 320.855469 L 15.03125 347.925781 C 15.03125 348.152344 15.152344 348.347656 15.332031 348.457031 L 15.328125 348.464844 L 15.324219 348.464844 L 61.273438 374.996094 L 62.523438 374.996094 L 61.898438 373.914062 L 48.140625 365.972656 " fill-opacity="1" fill-rule="nonzero"/></g><g clip-path="url(#e30fb3f414)"><path fill="#f7f7f7" d="M 8.15625 360.917969 L 0.652344 356.585938 L 0.652344 321.214844 L 1.277344 320.855469 L 0.0273438 320.855469 L 0.0273438 374.996094 L 1.257812 374.996094 L 0.632812 374.632812 L 0.632812 373.945312 L 0.652344 373.914062 L 0.652344 358.027344 L 7.515625 361.992188 L 7.511719 362 L 30.019531 374.996094 L 32.515625 374.996094 L 8.152344 360.925781 L 8.15625 360.917969 " fill-opacity="1" fill-rule="nonzero"/></g><g clip-path="url(#c4a3226c08)"><path fill="#f7f7f7" d="M 266.300781 78.308594 L 266.304688 78.308594 L 266.304688 50.15625 L 265.054688 50.15625 L 265.054688 76.144531 L 265.050781 76.140625 L 265.050781 104.296875 L 266.300781 104.296875 L 266.300781 78.308594 " fill-opacity="1" fill-rule="nonzero"/></g><g clip-path="url(#35fb86b0f8)"><path fill="#f7f7f7" d="M 250.589844 68.519531 C 250.53125 68.617188 250.449219 68.695312 250.355469 68.75 C 250.449219 68.695312 250.53125 68.617188 250.589844 68.519531 C 250.679688 68.367188 250.695312 68.199219 250.652344 68.046875 C 250.695312 68.199219 250.679688 68.367188 250.589844 68.519531 Z M 250.050781 68.832031 C 250.101562 68.832031 250.15625 68.824219 250.210938 68.808594 C 250.15625 68.824219 250.101562 68.832031 250.050781 68.832031 Z M 241.921875 64.234375 L 249.425781 68.566406 L 249.425781 103.933594 L 248.800781 104.296875 L 250.671875 104.296875 L 250.671875 50.515625 L 251.296875 50.15625 L 248.859375 50.15625 L 249.484375 50.519531 L 249.484375 51.140625 L 249.425781 51.238281 L 249.425781 67.125 L 242.589844 63.175781 L 242.605469 63.152344 L 220.097656 50.15625 L 217.597656 50.15625 L 241.9375 64.207031 L 241.921875 64.234375 " fill-opacity="1" fill-rule="nonzero"/></g><g clip-path="url(#c1f02ef4ac)"><path fill="#f7f7f7" d="M 233.851562 130.316406 L 233.835938 130.285156 L 220.078125 122.34375 L 226.957031 118.371094 L 226.949219 118.355469 L 250.363281 104.839844 C 250.5625 104.722656 250.671875 104.511719 250.671875 104.296875 L 248.800781 104.296875 L 235.042969 112.238281 L 235.042969 104.296875 L 233.792969 104.296875 L 233.792969 112.960938 L 226.296875 117.289062 L 226.304688 117.304688 L 218.828125 121.621094 L 211.34375 117.300781 L 211.347656 117.289062 L 203.84375 112.957031 L 203.84375 104.296875 L 202.59375 104.296875 L 202.59375 131.367188 C 202.59375 131.589844 202.714844 131.789062 202.894531 131.894531 L 202.890625 131.902344 L 202.890625 131.90625 L 248.835938 158.433594 L 251.296875 158.433594 L 265.054688 150.492188 L 265.054688 158.433594 L 266.304688 158.433594 L 266.304688 149.769531 L 296.933594 132.085938 L 297.558594 132.449219 L 296.625 130.828125 L 296.621094 130.824219 L 250.671875 157.355469 L 250.066406 158.402344 L 250.363281 157.894531 L 250.675781 157.351562 L 250.050781 157.710938 L 249.480469 157.382812 L 249.460938 157.355469 L 235.707031 149.410156 L 242.582031 145.4375 L 242.574219 145.425781 L 265.054688 132.445312 L 266.304688 130.28125 L 241.925781 144.359375 L 241.933594 144.375 L 234.457031 148.691406 L 203.828125 131.003906 L 203.828125 130.316406 L 203.84375 130.285156 L 203.84375 114.398438 L 210.710938 118.363281 L 210.703125 118.375 L 234.144531 131.910156 C 234.347656 132.023438 234.582031 132.015625 234.769531 131.90625 L 234.761719 131.890625 L 280.683594 105.378906 L 281.308594 104.296875 L 281.308594 104.292969 L 282.539062 104.292969 L 281.914062 103.933594 L 281.914062 103.246094 L 281.929688 103.214844 L 281.929688 87.328125 L 288.796875 91.289062 L 288.789062 91.300781 L 311.296875 104.292969 L 313.796875 104.292969 L 289.429688 90.226562 L 289.433594 90.21875 L 281.929688 85.882812 L 281.929688 50.515625 L 282.554688 50.15625 L 280.683594 50.15625 L 280.683594 103.933594 L 280.058594 104.296875 L 266.300781 112.238281 L 266.300781 104.296875 L 265.050781 104.296875 L 265.050781 112.960938 L 234.421875 130.644531 L 233.851562 130.316406 " fill-opacity="1" fill-rule="nonzero"/></g><g clip-path="url(#033dbb6bcb)"><path fill="#f7f7f7" d="M 296.609375 77.757812 L 296.605469 77.765625 L 296.605469 77.769531 L 342.550781 104.296875 L 343.800781 104.296875 L 343.175781 103.214844 L 329.417969 95.269531 L 336.296875 91.300781 C 336.300781 91.300781 336.300781 91.300781 336.300781 91.300781 L 335.675781 90.21875 C 335.675781 90.21875 335.675781 90.21875 335.671875 90.21875 L 328.167969 94.550781 L 297.539062 76.867188 L 297.539062 76.175781 L 297.558594 76.144531 L 297.558594 60.257812 L 304.425781 64.222656 L 304.417969 64.234375 L 327.863281 77.769531 C 328.0625 77.882812 328.300781 77.875 328.484375 77.765625 L 327.550781 76.144531 L 313.792969 68.203125 L 320.671875 64.230469 L 320.046875 63.148438 L 312.542969 67.480469 L 305.058594 63.160156 L 305.0625 63.148438 L 297.558594 58.816406 L 297.558594 50.15625 L 296.308594 50.15625 L 296.308594 77.226562 C 296.308594 77.453125 296.429688 77.648438 296.609375 77.757812 " fill-opacity="1" fill-rule="nonzero"/></g><path fill="#f7f7f7" d="M 280.683594 158.433594 L 282.554688 158.433594 L 296.3125 150.492188 L 296.3125 158.433594 L 297.5625 158.433594 L 297.5625 149.769531 L 305.0625 145.4375 L 304.4375 144.359375 L 280.992188 157.894531 C 280.792969 158.011719 280.683594 158.21875 280.683594 158.433594 " fill-opacity="1" fill-rule="nonzero"/><path fill="#f7f7f7" d="M 265.050781 132.449219 L 289.433594 118.375 L 288.808594 117.289062 L 266.300781 130.285156 L 265.050781 132.449219 " fill-opacity="1" fill-rule="nonzero"/><path fill="#f7f7f7" d="M 281.308594 104.296875 L 280.996094 104.839844 L 280.683594 105.378906 L 281.308594 105.015625 L 281.929688 105.378906 L 281.308594 104.296875 " fill-opacity="1" fill-rule="nonzero"/><path fill="#f7f7f7" d="M 311.316406 140.386719 L 304.4375 144.359375 L 305.0625 145.441406 L 312.566406 141.109375 L 320.066406 145.4375 L 320.691406 144.359375 L 297.246094 130.824219 C 297.046875 130.707031 296.8125 130.71875 296.625 130.824219 L 297.558594 132.445312 L 311.316406 140.386719 " fill-opacity="1" fill-rule="nonzero"/><path fill="#f7f7f7" d="M 336.320312 117.289062 L 313.8125 104.296875 L 311.3125 104.296875 L 335.695312 118.375 L 336.320312 117.289062 " fill-opacity="1" fill-rule="nonzero"/><path fill="#f7f7f7" d="M 289.4375 118.375 L 296.9375 114.042969 L 327.566406 131.726562 L 327.566406 132.449219 L 328.503906 130.828125 L 328.503906 130.824219 L 282.554688 104.296875 L 281.308594 104.296875 L 281.929688 105.378906 L 295.691406 113.320312 L 288.8125 117.289062 C 288.8125 117.289062 288.8125 117.292969 288.8125 117.292969 L 289.4375 118.375 " fill-opacity="1" fill-rule="nonzero"/><path fill="#f7f7f7" d="M 343.824219 104.296875 L 342.574219 104.296875 L 343.199219 104.65625 L 343.199219 105.378906 L 343.824219 104.296875 " fill-opacity="1" fill-rule="nonzero"/><path fill="#f7f7f7" d="M 344.449219 105.378906 L 343.824219 104.296875 L 343.199219 105.378906 L 343.199219 121.265625 L 336.320312 117.292969 L 335.695312 118.375 L 343.199219 122.707031 L 343.199219 158.074219 L 342.574219 158.433594 L 344.449219 158.433594 L 344.449219 105.378906 " fill-opacity="1" fill-rule="nonzero"/><path fill="#f7f7f7" d="M 328.820312 158.433594 L 328.820312 131.363281 C 328.820312 131.132812 328.695312 130.933594 328.507812 130.824219 L 327.570312 132.445312 L 327.570312 148.332031 L 320.691406 144.359375 L 320.066406 145.445312 L 327.570312 149.773438 L 327.570312 158.433594 L 328.820312 158.433594 " fill-opacity="1" fill-rule="nonzero"/><path fill="#f7f7f7" d="M 358.828125 158.433594 L 360.078125 158.433594 L 360.078125 132.445312 L 358.828125 130.28125 L 358.828125 158.433594 " fill-opacity="1" fill-rule="nonzero"/><g clip-path="url(#dc97c7900d)"><path fill="#f7f7f7" d="M 358.90625 167.773438 C 358.855469 167.679688 358.824219 167.574219 358.824219 167.460938 C 358.824219 167.574219 358.855469 167.679688 358.90625 167.773438 C 358.933594 167.820312 358.96875 167.863281 359.003906 167.902344 C 358.96875 167.863281 358.933594 167.820312 358.90625 167.773438 Z M 374.457031 157.355469 L 374.457031 158.074219 L 373.832031 158.433594 L 360.074219 166.378906 L 360.074219 158.4375 C 360.074219 158.4375 360.074219 158.4375 360.074219 158.433594 L 358.824219 158.433594 C 358.824219 158.4375 358.824219 158.4375 358.824219 158.4375 L 358.824219 167.101562 L 328.195312 184.785156 L 327.570312 184.425781 L 328.507812 186.042969 L 328.507812 186.046875 L 374.457031 159.519531 L 374.964844 158.636719 L 374.964844 158.234375 L 374.769531 157.894531 L 374.457031 157.355469 " fill-opacity="1" fill-rule="nonzero"/></g><path fill="#f7f7f7" d="M 344.449219 158.433594 L 342.578125 158.433594 L 328.820312 166.378906 L 328.816406 158.4375 L 327.566406 158.4375 L 327.570312 167.101562 L 320.070312 171.433594 L 320.695312 172.511719 L 344.136719 158.976562 C 344.339844 158.863281 344.449219 158.652344 344.449219 158.433594 " fill-opacity="1" fill-rule="nonzero"/><path fill="#f7f7f7" d="M 360.078125 184.421875 L 335.695312 198.5 L 336.320312 199.582031 L 358.828125 186.585938 L 360.078125 184.421875 " fill-opacity="1" fill-rule="nonzero"/><path fill="#f7f7f7" d="M 344.136719 212.035156 L 344.449219 211.492188 L 343.824219 211.855469 L 343.199219 211.492188 L 343.824219 212.574219 L 344.136719 212.035156 " fill-opacity="1" fill-rule="nonzero"/><g clip-path="url(#e990c6867b)"><path fill="#f7f7f7" d="M 374.457031 104.296875 L 374.457031 157.355469 L 374.964844 158.234375 L 374.964844 104.296875 L 374.457031 104.296875 " fill-opacity="1" fill-rule="nonzero"/></g><path fill="#f7f7f7" d="M 360.078125 104.296875 L 358.828125 104.296875 L 358.828125 130.285156 L 360.078125 132.449219 L 360.078125 104.296875 " fill-opacity="1" fill-rule="nonzero"/><g clip-path="url(#631432c2f5)"><path fill="#f7f7f7" d="M 360 203.238281 C 360.023438 203.285156 360.042969 203.335938 360.058594 203.386719 C 360.042969 203.335938 360.023438 203.285156 360 203.238281 C 359.972656 203.191406 359.9375 203.148438 359.898438 203.109375 C 359.9375 203.148438 359.972656 203.191406 360 203.238281 Z M 343.824219 212.574219 L 344.449219 213.660156 L 344.449219 212.9375 L 345.074219 212.574219 L 358.832031 204.632812 L 358.828125 212.574219 L 360.078125 212.574219 L 360.082031 203.910156 L 374.964844 195.316406 L 374.964844 193.875 L 344.449219 211.492188 L 343.824219 212.574219 " fill-opacity="1" fill-rule="nonzero"/></g><g clip-path="url(#58e96ef9ca)"><path fill="#f7f7f7" d="M 374.457031 212.574219 L 374.964844 212.574219 L 374.964844 211.921875 L 374.769531 212.035156 C 374.566406 212.148438 374.457031 212.359375 374.457031 212.574219 " fill-opacity="1" fill-rule="nonzero"/></g><g clip-path="url(#5c22e52b52)"><path fill="#f7f7f7" d="M 358.828125 186.589844 L 374.964844 177.273438 L 374.964844 175.828125 L 360.078125 184.425781 L 358.828125 186.589844 " fill-opacity="1" fill-rule="nonzero"/></g><g clip-path="url(#3c21c8c389)"><path fill="#f7f7f7" d="M 374.457031 159.519531 L 374.964844 159.226562 L 374.964844 158.636719 L 374.769531 158.976562 L 374.457031 159.519531 " fill-opacity="1" fill-rule="nonzero"/></g><g clip-path="url(#018d4d1256)"><path fill="#f7f7f7" d="M 358.90625 59.492188 C 358.855469 59.402344 358.824219 59.296875 358.824219 59.179688 C 358.824219 59.296875 358.855469 59.402344 358.90625 59.492188 C 358.933594 59.539062 358.96875 59.582031 359.003906 59.621094 C 358.96875 59.582031 358.933594 59.539062 358.90625 59.492188 Z M 373.832031 50.15625 L 360.074219 58.097656 L 360.074219 50.160156 C 360.074219 50.15625 360.074219 50.15625 360.074219 50.15625 L 358.824219 50.15625 C 358.824219 50.15625 358.824219 50.15625 358.824219 50.160156 L 358.824219 58.820312 L 328.195312 76.503906 L 327.570312 76.144531 L 328.507812 77.765625 L 328.507812 77.769531 L 374.457031 51.238281 L 374.964844 50.359375 L 374.964844 50.15625 L 373.832031 50.15625 " fill-opacity="1" fill-rule="nonzero"/></g><g clip-path="url(#d8006860fa)"><path fill="#f7f7f7" d="M 320.695312 64.234375 L 344.136719 50.699219 C 344.339844 50.582031 344.449219 50.371094 344.449219 50.15625 L 342.578125 50.15625 L 328.820312 58.101562 L 328.816406 50.15625 L 327.566406 50.15625 L 327.570312 58.820312 L 320.070312 63.152344 L 320.695312 64.234375 " fill-opacity="1" fill-rule="nonzero"/></g><path fill="#f7f7f7" d="M 360.078125 76.140625 L 335.695312 90.21875 L 336.320312 91.300781 L 358.828125 78.304688 L 360.078125 76.140625 " fill-opacity="1" fill-rule="nonzero"/><path fill="#f7f7f7" d="M 344.136719 103.753906 L 344.449219 103.214844 L 343.824219 103.574219 L 343.199219 103.214844 L 343.824219 104.292969 L 344.136719 103.753906 " fill-opacity="1" fill-rule="nonzero"/><g clip-path="url(#82f61a4cef)"><path fill="#f7f7f7" d="M 360 94.960938 C 360.023438 95.003906 360.042969 95.054688 360.058594 95.109375 C 360.042969 95.054688 360.023438 95.003906 360 94.960938 C 359.972656 94.910156 359.9375 94.871094 359.898438 94.832031 C 359.9375 94.871094 359.972656 94.910156 360 94.960938 Z M 343.824219 104.296875 L 344.136719 104.835938 L 344.449219 105.378906 L 344.449219 104.65625 L 345.074219 104.296875 L 358.832031 96.351562 L 358.828125 104.292969 L 360.078125 104.292969 L 360.082031 95.632812 L 374.964844 87.039062 L 374.964844 85.597656 L 344.449219 103.214844 L 343.824219 104.296875 " fill-opacity="1" fill-rule="nonzero"/></g><g clip-path="url(#8658cf6b70)"><path fill="#f7f7f7" d="M 374.457031 104.292969 L 374.964844 104.292969 L 374.964844 103.640625 L 374.769531 103.753906 C 374.566406 103.871094 374.457031 104.082031 374.457031 104.292969 " fill-opacity="1" fill-rule="nonzero"/></g><g clip-path="url(#e0bcab4b42)"><path fill="#f7f7f7" d="M 358.828125 78.308594 L 374.964844 68.992188 L 374.964844 67.550781 L 360.078125 76.144531 L 358.828125 78.308594 " fill-opacity="1" fill-rule="nonzero"/></g><g clip-path="url(#9e6ab22164)"><path fill="#f7f7f7" d="M 374.457031 51.238281 L 374.964844 50.945312 L 374.964844 50.359375 L 374.769531 50.699219 L 374.457031 51.238281 " fill-opacity="1" fill-rule="nonzero"/></g><path fill="#f7f7f7" d="M 235.046875 212.574219 L 235.046875 185.503906 C 235.046875 185.292969 234.9375 185.105469 234.773438 184.992188 L 234.789062 184.96875 L 234.789062 184.964844 L 188.84375 158.433594 L 187.59375 158.433594 L 188.21875 159.519531 L 201.976562 167.460938 L 195.097656 171.433594 L 195.71875 172.515625 C 195.71875 172.511719 195.722656 172.511719 195.722656 172.511719 L 203.222656 168.183594 L 233.851562 185.867188 L 233.851562 186.488281 L 233.796875 186.585938 L 233.796875 202.472656 L 226.960938 198.527344 L 226.976562 198.5 L 203.535156 184.960938 C 203.332031 184.847656 203.09375 184.859375 202.910156 184.964844 L 203.84375 186.585938 L 217.601562 194.527344 L 210.722656 198.5 L 211.347656 199.582031 L 218.851562 195.25 L 226.308594 199.554688 L 226.292969 199.582031 L 233.796875 203.914062 L 233.796875 212.574219 L 235.046875 212.574219 " fill-opacity="1" fill-rule="nonzero"/><path fill="#f7f7f7" d="M 266.300781 186.585938 L 266.304688 186.589844 L 266.304688 158.433594 L 265.054688 158.433594 L 265.054688 184.425781 L 265.050781 184.421875 L 265.050781 212.574219 L 266.300781 212.574219 L 266.300781 186.585938 " fill-opacity="1" fill-rule="nonzero"/><path fill="#f7f7f7" d="M 327.863281 186.046875 C 328.0625 186.164062 328.300781 186.15625 328.484375 186.046875 L 327.550781 184.425781 L 313.792969 176.484375 L 320.671875 172.511719 L 320.046875 171.429688 L 312.542969 175.761719 L 305.058594 171.441406 L 305.0625 171.429688 L 297.558594 167.097656 L 297.558594 158.433594 L 296.308594 158.433594 L 296.308594 185.507812 C 296.308594 185.730469 296.429688 185.925781 296.609375 186.035156 L 296.605469 186.042969 L 296.605469 186.046875 L 342.550781 212.574219 L 343.800781 212.574219 L 343.175781 211.492188 L 329.417969 203.550781 L 336.296875 199.582031 C 336.296875 199.582031 336.300781 199.578125 336.300781 199.578125 L 335.675781 198.496094 C 335.675781 198.496094 335.675781 198.496094 335.671875 198.5 L 328.167969 202.828125 L 297.539062 185.144531 L 297.539062 184.457031 L 297.558594 184.425781 L 297.558594 168.539062 L 304.425781 172.503906 L 304.417969 172.511719 L 327.863281 186.046875 " fill-opacity="1" fill-rule="nonzero"/><path fill="#f7f7f7" d="M 296.3125 258.773438 L 296.3125 266.714844 L 297.5625 266.714844 L 297.5625 258.050781 L 305.0625 253.71875 L 304.4375 252.636719 L 280.992188 266.171875 C 280.792969 266.289062 280.683594 266.5 280.683594 266.714844 L 282.554688 266.714844 L 296.3125 258.773438 " fill-opacity="1" fill-rule="nonzero"/><path fill="#f7f7f7" d="M 265.050781 240.730469 L 289.433594 226.652344 L 288.808594 225.570312 L 266.300781 238.566406 L 265.050781 240.730469 " fill-opacity="1" fill-rule="nonzero"/><path fill="#f7f7f7" d="M 266.304688 266.714844 L 266.304688 258.050781 L 296.933594 240.367188 L 297.558594 240.726562 L 296.625 239.105469 L 296.621094 239.105469 L 250.671875 265.632812 L 250.066406 266.683594 L 250.363281 266.171875 L 250.675781 265.632812 L 250.050781 265.992188 L 249.480469 265.664062 L 249.460938 265.632812 L 235.707031 257.691406 L 242.582031 253.71875 L 242.574219 253.703125 L 265.054688 240.726562 L 266.304688 238.5625 L 241.925781 252.636719 L 241.933594 252.652344 L 234.457031 256.96875 L 203.828125 239.285156 L 203.828125 238.597656 L 203.84375 238.566406 L 203.84375 222.679688 L 210.710938 226.640625 L 210.703125 226.652344 L 234.144531 240.1875 C 234.347656 240.304688 234.582031 240.292969 234.769531 240.1875 L 234.761719 240.171875 L 280.683594 213.660156 L 281.308594 212.574219 L 282.539062 212.574219 L 281.914062 212.214844 L 281.914062 211.527344 L 281.929688 211.492188 L 281.929688 195.609375 L 288.796875 199.570312 L 288.789062 199.582031 L 311.296875 212.574219 L 313.796875 212.574219 L 289.429688 198.507812 L 289.433594 198.496094 L 281.929688 194.164062 L 281.929688 158.796875 L 282.554688 158.433594 L 280.683594 158.433594 L 280.683594 212.214844 L 280.058594 212.574219 L 266.300781 220.519531 L 266.300781 212.578125 C 266.300781 212.578125 266.300781 212.578125 266.300781 212.574219 L 265.050781 212.574219 C 265.050781 212.578125 265.050781 212.578125 265.050781 212.578125 L 265.050781 221.238281 L 234.421875 238.925781 L 233.851562 238.597656 L 233.835938 238.566406 L 220.078125 230.621094 L 226.957031 226.652344 L 226.949219 226.636719 L 250.363281 213.117188 C 250.5625 213 250.671875 212.792969 250.671875 212.578125 L 248.800781 212.578125 L 235.042969 220.519531 L 235.042969 212.578125 L 233.792969 212.578125 L 233.792969 221.242188 L 226.296875 225.570312 L 226.304688 225.585938 L 218.828125 229.902344 L 211.34375 225.578125 L 211.347656 225.566406 L 203.84375 221.238281 L 203.84375 212.574219 L 202.59375 212.574219 L 202.59375 239.648438 C 202.59375 239.871094 202.714844 240.066406 202.894531 240.175781 L 202.890625 240.183594 L 202.890625 240.1875 L 248.835938 266.714844 L 251.296875 266.714844 L 265.054688 258.773438 L 265.054688 266.714844 L 266.304688 266.714844 " fill-opacity="1" fill-rule="nonzero"/><path fill="#f7f7f7" d="M 281.308594 212.578125 L 280.683594 213.660156 L 281.308594 213.296875 L 281.929688 213.660156 L 281.308594 212.578125 " fill-opacity="1" fill-rule="nonzero"/><path fill="#f7f7f7" d="M 336.320312 225.570312 L 313.8125 212.578125 L 311.3125 212.578125 L 335.695312 226.652344 L 336.320312 225.570312 " fill-opacity="1" fill-rule="nonzero"/><path fill="#f7f7f7" d="M 305.0625 253.722656 L 312.566406 249.390625 L 320.066406 253.71875 L 320.691406 252.636719 L 297.246094 239.101562 C 297.046875 238.988281 296.8125 238.996094 296.625 239.105469 L 297.558594 240.726562 L 311.316406 248.667969 L 304.4375 252.640625 L 305.0625 253.722656 " fill-opacity="1" fill-rule="nonzero"/><path fill="#f7f7f7" d="M 289.4375 226.652344 L 296.9375 222.320312 L 327.566406 240.007812 L 327.566406 240.726562 L 328.503906 239.105469 L 282.554688 212.574219 L 281.308594 212.574219 L 281.929688 213.660156 L 295.691406 221.601562 L 288.8125 225.570312 L 289.4375 226.652344 " fill-opacity="1" fill-rule="nonzero"/><path fill="#f7f7f7" d="M 343.824219 212.578125 L 342.574219 212.578125 L 343.199219 212.9375 L 343.199219 213.660156 L 343.824219 212.578125 " fill-opacity="1" fill-rule="nonzero"/><path fill="#f7f7f7" d="M 344.449219 213.660156 L 343.824219 212.574219 L 343.199219 213.660156 L 343.199219 229.542969 L 336.320312 225.574219 L 335.695312 226.652344 C 335.695312 226.652344 335.695312 226.65625 335.695312 226.65625 L 343.199219 230.988281 L 343.199219 266.355469 L 342.574219 266.714844 L 344.449219 266.714844 L 344.449219 213.660156 " fill-opacity="1" fill-rule="nonzero"/><path fill="#f7f7f7" d="M 328.820312 266.714844 L 328.820312 239.644531 C 328.820312 239.414062 328.695312 239.214844 328.507812 239.105469 L 327.570312 240.726562 L 327.570312 256.613281 L 320.691406 252.640625 L 320.066406 253.722656 L 327.570312 258.054688 L 327.570312 266.714844 L 328.820312 266.714844 " fill-opacity="1" fill-rule="nonzero"/><g clip-path="url(#d80474b617)"><path fill="#f7f7f7" d="M 358.90625 276.054688 C 358.855469 275.960938 358.824219 275.855469 358.824219 275.742188 C 358.824219 275.855469 358.855469 275.960938 358.90625 276.054688 C 358.933594 276.101562 358.96875 276.144531 359.003906 276.179688 C 358.96875 276.144531 358.933594 276.101562 358.90625 276.054688 Z M 374.457031 265.632812 L 374.457031 266.355469 L 373.832031 266.714844 L 360.074219 274.660156 L 360.074219 266.714844 L 360.078125 266.714844 L 360.078125 240.726562 L 358.828125 238.5625 L 358.828125 266.714844 L 358.824219 266.714844 L 358.824219 275.378906 L 328.195312 293.0625 L 327.570312 292.703125 L 328.507812 294.324219 L 374.457031 267.796875 L 374.964844 266.917969 L 374.964844 266.511719 L 374.769531 266.175781 L 374.457031 265.632812 " fill-opacity="1" fill-rule="nonzero"/></g><path fill="#f7f7f7" d="M 344.449219 266.714844 L 342.578125 266.714844 L 328.820312 274.660156 L 328.816406 266.714844 L 327.566406 266.714844 L 327.570312 275.382812 L 320.070312 279.710938 L 320.695312 280.792969 L 344.136719 267.257812 C 344.339844 267.140625 344.449219 266.929688 344.449219 266.714844 " fill-opacity="1" fill-rule="nonzero"/><path fill="#f7f7f7" d="M 360.078125 292.703125 L 335.695312 306.777344 L 336.320312 307.859375 L 358.828125 294.867188 L 360.078125 292.703125 " fill-opacity="1" fill-rule="nonzero"/><path fill="#f7f7f7" d="M 343.824219 320.855469 L 344.136719 320.3125 L 344.449219 319.773438 L 343.824219 320.132812 L 343.199219 319.773438 L 343.824219 320.855469 " fill-opacity="1" fill-rule="nonzero"/><g clip-path="url(#77572fa63f)"><path fill="#f7f7f7" d="M 374.457031 212.574219 L 374.457031 265.632812 L 374.964844 266.511719 L 374.964844 212.574219 L 374.457031 212.574219 " fill-opacity="1" fill-rule="nonzero"/></g><path fill="#f7f7f7" d="M 360.078125 212.574219 L 358.828125 212.574219 L 358.828125 238.566406 L 360.078125 240.730469 L 360.078125 212.574219 " fill-opacity="1" fill-rule="nonzero"/><g clip-path="url(#067f6bdb5b)"><path fill="#f7f7f7" d="M 360 311.519531 C 360.023438 311.5625 360.042969 311.613281 360.058594 311.667969 C 360.042969 311.613281 360.023438 311.5625 360 311.519531 C 359.972656 311.472656 359.9375 311.429688 359.898438 311.390625 C 359.9375 311.429688 359.972656 311.472656 360 311.519531 Z M 343.824219 320.855469 L 345.074219 320.855469 L 358.832031 312.914062 L 358.828125 320.855469 L 360.078125 320.855469 L 360.082031 312.191406 L 374.964844 303.597656 L 374.964844 302.15625 L 344.449219 319.773438 L 343.824219 320.855469 " fill-opacity="1" fill-rule="nonzero"/></g><g clip-path="url(#af69a7bba9)"><path fill="#f7f7f7" d="M 374.457031 320.855469 L 374.964844 320.855469 L 374.964844 320.199219 L 374.769531 320.3125 C 374.566406 320.429688 374.457031 320.640625 374.457031 320.855469 " fill-opacity="1" fill-rule="nonzero"/></g><g clip-path="url(#78317eadb9)"><path fill="#f7f7f7" d="M 358.828125 294.871094 L 374.964844 285.554688 L 374.964844 284.109375 L 360.078125 292.707031 L 358.828125 294.871094 " fill-opacity="1" fill-rule="nonzero"/></g><g clip-path="url(#a40754c611)"><path fill="#f7f7f7" d="M 374.457031 267.796875 L 374.964844 267.507812 L 374.964844 266.917969 L 374.769531 267.257812 L 374.457031 267.796875 " fill-opacity="1" fill-rule="nonzero"/></g><path fill="#f7f7f7" d="M 235.046875 320.855469 L 235.046875 293.785156 C 235.046875 293.570312 234.9375 293.382812 234.773438 293.273438 L 234.789062 293.246094 L 188.84375 266.714844 L 187.59375 266.714844 L 188.21875 267.796875 L 201.976562 275.742188 L 195.097656 279.710938 L 195.71875 280.792969 C 195.71875 280.792969 195.722656 280.792969 195.722656 280.792969 L 203.222656 276.460938 L 233.851562 294.148438 L 233.851562 294.765625 L 233.796875 294.867188 L 233.796875 310.75 L 226.960938 306.804688 L 226.976562 306.777344 L 203.535156 293.242188 C 203.332031 293.125 203.09375 293.136719 202.910156 293.246094 L 203.84375 294.867188 L 217.601562 302.808594 L 210.722656 306.78125 L 211.347656 307.859375 L 218.851562 303.53125 L 226.308594 307.835938 L 226.292969 307.863281 L 233.796875 312.195312 L 233.796875 320.855469 L 235.046875 320.855469 " fill-opacity="1" fill-rule="nonzero"/><path fill="#f7f7f7" d="M 327.863281 294.328125 C 328.0625 294.445312 328.300781 294.433594 328.484375 294.324219 L 327.550781 292.707031 L 313.792969 284.761719 L 320.671875 280.789062 L 320.046875 279.707031 L 312.542969 284.042969 L 305.058594 279.71875 L 305.0625 279.707031 L 297.558594 275.375 L 297.558594 266.714844 L 296.308594 266.714844 L 296.308594 293.785156 C 296.308594 294.011719 296.429688 294.207031 296.609375 294.316406 L 296.605469 294.324219 L 342.550781 320.855469 L 343.800781 320.855469 L 343.175781 319.773438 L 329.417969 311.832031 L 336.296875 307.859375 C 336.300781 307.859375 336.300781 307.859375 336.300781 307.859375 L 335.675781 306.777344 L 328.167969 311.109375 L 297.539062 293.425781 L 297.539062 292.738281 L 297.558594 292.707031 L 297.558594 276.820312 L 304.425781 280.78125 L 304.417969 280.792969 L 327.863281 294.328125 " fill-opacity="1" fill-rule="nonzero"/><path fill="#f7f7f7" d="M 265.054688 292.703125 L 265.050781 292.703125 L 265.050781 320.855469 L 266.300781 320.855469 L 266.300781 294.867188 L 266.304688 294.871094 L 266.304688 266.714844 L 265.054688 266.714844 L 265.054688 292.703125 " fill-opacity="1" fill-rule="nonzero"/><path fill="#f7f7f7" d="M 251.296875 266.714844 L 248.859375 266.714844 L 249.484375 267.078125 L 249.484375 267.699219 L 249.425781 267.796875 L 249.425781 283.683594 L 242.589844 279.738281 L 242.605469 279.710938 L 220.097656 266.714844 L 217.597656 266.714844 L 241.9375 280.769531 L 241.921875 280.792969 L 241.921875 280.796875 L 249.425781 285.125 L 249.425781 320.496094 L 248.800781 320.855469 L 250.671875 320.855469 L 250.671875 267.078125 L 251.296875 266.714844 " fill-opacity="1" fill-rule="nonzero"/><g clip-path="url(#f9467c0433)"><path fill="#f7f7f7" d="M 304.4375 360.917969 L 280.992188 374.453125 C 280.792969 374.570312 280.683594 374.78125 280.683594 374.996094 L 282.554688 374.996094 L 296.3125 367.050781 L 296.3125 374.996094 L 297.5625 374.996094 L 297.5625 366.332031 L 305.0625 362 L 304.4375 360.917969 " fill-opacity="1" fill-rule="nonzero"/></g><path fill="#f7f7f7" d="M 265.050781 349.011719 L 289.433594 334.929688 L 288.808594 333.851562 L 266.300781 346.84375 L 265.050781 349.011719 " fill-opacity="1" fill-rule="nonzero"/><g clip-path="url(#50d97ef530)"><path fill="#f7f7f7" d="M 297.558594 349.007812 L 296.625 347.386719 L 296.621094 347.382812 L 250.671875 373.914062 L 250.066406 374.960938 L 250.363281 374.453125 L 250.675781 373.914062 L 250.050781 374.273438 L 249.480469 373.945312 L 249.460938 373.914062 L 235.707031 365.972656 L 242.582031 362 L 242.574219 361.984375 L 265.054688 349.007812 L 266.304688 346.839844 L 241.925781 360.917969 L 241.933594 360.933594 L 234.457031 365.246094 L 203.828125 347.566406 L 203.828125 346.875 L 203.84375 346.84375 L 203.84375 330.957031 L 210.710938 334.921875 L 210.703125 334.933594 L 234.144531 348.46875 C 234.347656 348.582031 234.582031 348.574219 234.769531 348.464844 L 234.761719 348.449219 L 280.683594 321.9375 L 281.308594 320.855469 L 282.539062 320.855469 L 281.914062 320.496094 L 281.914062 319.808594 L 281.929688 319.773438 L 281.929688 303.886719 L 288.796875 307.851562 L 288.789062 307.859375 L 311.296875 320.855469 L 313.796875 320.855469 L 289.429688 306.789062 L 289.433594 306.777344 L 281.929688 302.445312 L 281.929688 267.078125 L 282.554688 266.714844 L 280.683594 266.714844 L 280.683594 320.496094 L 280.058594 320.855469 L 266.300781 328.800781 L 266.300781 320.855469 L 265.050781 320.855469 L 265.050781 329.519531 L 234.421875 347.203125 L 233.851562 346.875 L 233.835938 346.847656 L 220.078125 338.902344 L 226.957031 334.929688 L 226.949219 334.917969 L 250.363281 321.394531 C 250.5625 321.28125 250.671875 321.070312 250.671875 320.855469 L 248.800781 320.855469 L 235.042969 328.800781 L 235.042969 320.855469 L 233.792969 320.855469 L 233.792969 329.519531 L 226.296875 333.851562 L 226.304688 333.867188 L 218.828125 338.183594 L 211.34375 333.859375 L 211.347656 333.847656 L 203.84375 329.515625 L 203.84375 320.855469 L 202.59375 320.855469 L 202.59375 347.925781 C 202.59375 348.152344 202.714844 348.347656 202.894531 348.457031 L 202.890625 348.464844 L 248.835938 374.996094 L 251.296875 374.996094 L 265.054688 367.050781 L 265.054688 374.996094 L 266.304688 374.996094 L 266.304688 366.332031 L 296.933594 348.644531 L 297.558594 349.007812 " fill-opacity="1" fill-rule="nonzero"/></g><path fill="#f7f7f7" d="M 281.308594 320.855469 L 280.996094 321.394531 L 280.683594 321.9375 L 281.308594 321.578125 L 281.929688 321.9375 L 281.308594 320.855469 " fill-opacity="1" fill-rule="nonzero"/><path fill="#f7f7f7" d="M 297.246094 347.382812 C 297.046875 347.265625 296.8125 347.277344 296.625 347.382812 L 297.558594 349.007812 L 311.316406 356.949219 L 304.4375 360.917969 L 305.0625 362 L 312.566406 357.667969 L 320.066406 362 L 320.691406 360.917969 L 297.246094 347.382812 " fill-opacity="1" fill-rule="nonzero"/><path fill="#f7f7f7" d="M 313.8125 320.855469 L 311.3125 320.855469 L 335.695312 334.929688 L 336.320312 333.851562 L 313.8125 320.855469 " fill-opacity="1" fill-rule="nonzero"/><path fill="#f7f7f7" d="M 328.503906 347.386719 L 328.503906 347.382812 L 282.554688 320.855469 L 281.308594 320.855469 L 281.929688 321.9375 L 295.691406 329.878906 L 288.8125 333.851562 L 289.4375 334.933594 L 296.9375 330.601562 L 327.566406 348.285156 L 327.566406 349.007812 L 328.503906 347.386719 " fill-opacity="1" fill-rule="nonzero"/><path fill="#f7f7f7" d="M 343.824219 320.855469 L 342.574219 320.855469 L 343.199219 321.21875 L 343.199219 321.9375 L 343.824219 320.855469 " fill-opacity="1" fill-rule="nonzero"/><g clip-path="url(#619b0fc905)"><path fill="#f7f7f7" d="M 343.199219 321.9375 L 343.199219 337.824219 L 336.320312 333.851562 L 335.695312 334.933594 L 343.199219 339.265625 L 343.199219 374.636719 L 342.574219 374.996094 L 344.449219 374.996094 L 344.449219 321.214844 L 345.074219 320.855469 L 343.824219 320.855469 L 343.199219 321.9375 " fill-opacity="1" fill-rule="nonzero"/></g><g clip-path="url(#d9dfa850a6)"><path fill="#f7f7f7" d="M 328.507812 347.386719 L 327.570312 349.007812 L 327.570312 364.890625 L 320.691406 360.921875 L 320.066406 362 L 327.570312 366.335938 L 327.570312 374.996094 L 328.820312 374.996094 L 328.820312 347.921875 C 328.820312 347.691406 328.695312 347.496094 328.507812 347.386719 " fill-opacity="1" fill-rule="nonzero"/></g><g clip-path="url(#e03174dbaf)"><path fill="#f7f7f7" d="M 374.457031 320.855469 L 374.457031 374.636719 L 373.832031 374.996094 L 374.964844 374.996094 L 374.964844 320.855469 L 374.457031 320.855469 " fill-opacity="1" fill-rule="nonzero"/></g><g clip-path="url(#2676e9540f)"><path fill="#f7f7f7" d="M 358.828125 346.84375 L 358.828125 374.996094 L 360.078125 374.996094 L 360.078125 349.007812 L 360.078125 349.011719 L 360.078125 320.855469 L 358.828125 320.855469 L 358.828125 346.84375 " fill-opacity="1" fill-rule="nonzero"/></g><path fill="#f7f7f7" d="M 39.429688 10.089844 L 62.875 -3.449219 C 63.074219 -3.5625 63.183594 -3.773438 63.183594 -3.988281 L 61.3125 -3.988281 L 47.554688 3.957031 L 47.554688 -3.988281 L 46.304688 -3.988281 L 46.304688 4.675781 L 38.804688 9.007812 L 39.429688 10.089844 " fill-opacity="1" fill-rule="nonzero"/><path fill="#f7f7f7" d="M 78.816406 21.996094 L 54.433594 36.074219 L 55.058594 37.15625 L 77.566406 24.164062 L 78.816406 21.996094 " fill-opacity="1" fill-rule="nonzero"/><g clip-path="url(#ee99f77948)"><path fill="#f7f7f7" d="M 62.5625 50.152344 L 62.875 49.609375 L 63.1875 49.070312 L 62.5625 49.429688 L 61.9375 49.070312 L 62.5625 50.152344 " fill-opacity="1" fill-rule="nonzero"/></g><path fill="#f7f7f7" d="M 101.941406 -18.054688 L 101.945312 -18.066406 L 94.441406 -22.398438 L 94.441406 -57.765625 L 95.066406 -58.128906 L 93.191406 -58.128906 L 93.191406 -4.347656 L 92.570312 -3.988281 L 92.566406 -3.988281 L 78.8125 3.957031 L 78.8125 -3.988281 L 77.5625 -3.988281 L 77.5625 4.675781 L 46.933594 22.359375 L 46.308594 22 L 47.242188 23.621094 L 47.246094 23.621094 L 93.191406 -2.90625 L 93.816406 -3.988281 L 95.046875 -3.988281 L 94.421875 -4.347656 L 94.421875 -5.035156 L 94.441406 -5.070312 L 94.441406 -20.957031 L 101.304688 -16.992188 L 101.300781 -16.984375 L 123.808594 -3.988281 L 126.308594 -3.988281 L 101.941406 -18.054688 " fill-opacity="1" fill-rule="nonzero"/><g clip-path="url(#e7c267730e)"><path fill="#f7f7f7" d="M 116.949219 36.074219 L 93.503906 49.609375 C 93.304688 49.726562 93.195312 49.9375 93.195312 50.152344 L 95.066406 50.152344 L 108.824219 42.207031 L 108.824219 50.152344 L 110.074219 50.152344 L 110.074219 41.488281 L 117.570312 37.15625 L 116.949219 36.074219 " fill-opacity="1" fill-rule="nonzero"/></g><path fill="#f7f7f7" d="M 101.320312 9.007812 L 78.8125 22 L 77.5625 24.167969 L 101.945312 10.085938 L 101.320312 9.007812 " fill-opacity="1" fill-rule="nonzero"/><g clip-path="url(#617b681ed5)"><path fill="#f7f7f7" d="M 110.070312 24.164062 L 109.136719 22.542969 L 109.132812 22.539062 L 63.1875 49.070312 L 62.5625 50.152344 L 63.808594 50.152344 L 77.566406 42.207031 L 77.566406 50.148438 C 77.566406 50.148438 77.566406 50.152344 77.566406 50.152344 L 78.816406 50.152344 L 78.816406 41.488281 L 109.445312 23.800781 L 110.070312 24.164062 " fill-opacity="1" fill-rule="nonzero"/></g><path fill="#f7f7f7" d="M 109.757812 22.539062 C 109.558594 22.421875 109.320312 22.433594 109.136719 22.539062 L 110.070312 24.164062 L 123.828125 32.105469 L 116.949219 36.074219 L 117.574219 37.15625 L 125.078125 32.824219 L 132.578125 37.15625 L 133.203125 36.074219 L 109.757812 22.539062 " fill-opacity="1" fill-rule="nonzero"/><path fill="#f7f7f7" d="M 126.324219 -3.988281 L 123.824219 -3.988281 L 148.207031 10.085938 L 148.828125 9.007812 L 126.324219 -3.988281 " fill-opacity="1" fill-rule="nonzero"/><path fill="#f7f7f7" d="M 141.015625 22.542969 L 141.015625 22.539062 L 95.066406 -3.988281 L 93.820312 -3.988281 L 94.445312 -2.90625 L 108.199219 5.035156 L 101.324219 9.007812 C 101.324219 9.007812 101.320312 9.007812 101.320312 9.007812 L 101.945312 10.089844 L 109.449219 5.757812 L 140.078125 23.441406 L 140.078125 24.164062 L 141.015625 22.542969 " fill-opacity="1" fill-rule="nonzero"/><g clip-path="url(#f7460c6acd)"><path fill="#f7f7f7" d="M 141.019531 22.542969 L 140.082031 24.164062 L 140.082031 40.046875 L 133.203125 36.078125 L 132.578125 37.15625 L 140.082031 41.492188 L 140.082031 50.152344 L 141.332031 50.152344 L 141.332031 23.078125 C 141.332031 22.847656 141.203125 22.652344 141.019531 22.542969 " fill-opacity="1" fill-rule="nonzero"/></g><g clip-path="url(#193f97c14e)"><path fill="#f7f7f7" d="M 171.339844 22 L 171.335938 22 L 171.335938 50.152344 L 172.585938 50.152344 L 172.585938 24.164062 L 172.589844 24.167969 L 172.589844 -3.988281 L 171.339844 -3.988281 L 171.339844 22 " fill-opacity="1" fill-rule="nonzero"/></g><g clip-path="url(#a9074816aa)"><path fill="#f7f7f7" d="M 195.71875 36.074219 L 188.214844 31.742188 L 188.214844 -3.628906 L 188.839844 -3.988281 L 186.96875 -3.988281 L 186.96875 49.792969 L 186.34375 50.152344 L 188.824219 50.152344 L 188.199219 49.789062 L 188.199219 49.101562 L 188.214844 49.070312 L 188.214844 33.183594 L 195.082031 37.148438 L 195.074219 37.15625 L 217.582031 50.152344 L 220.082031 50.152344 L 195.714844 36.082031 L 195.71875 36.074219 " fill-opacity="1" fill-rule="nonzero"/></g><g clip-path="url(#4ccb069c1b)"><path fill="#f7f7f7" d="M 157.582031 -3.988281 L 156.335938 -3.988281 L 155.710938 -2.90625 L 155.710938 12.980469 L 148.832031 9.007812 L 148.207031 10.089844 L 155.710938 14.421875 L 155.710938 49.792969 L 155.085938 50.152344 L 156.960938 50.152344 L 156.960938 -3.628906 L 157.582031 -3.988281 " fill-opacity="1" fill-rule="nonzero"/></g><g clip-path="url(#e14779a1f9)"><path fill="#f7f7f7" d="M 48.140625 41.128906 L 55.019531 37.15625 L 54.394531 36.074219 L 46.890625 40.402344 L 16.261719 22.722656 L 16.261719 22.03125 L 16.28125 22 L 16.28125 6.113281 L 23.144531 10.078125 L 23.136719 10.089844 L 46.582031 23.625 C 46.78125 23.738281 47.019531 23.730469 47.207031 23.621094 L 46.269531 22.003906 L 32.511719 14.058594 L 39.390625 10.085938 L 38.765625 9.003906 L 31.261719 13.339844 L 23.777344 9.015625 L 23.785156 9.003906 L 16.28125 4.671875 L 16.28125 -3.988281 L 15.03125 -3.988281 L 15.03125 23.082031 C 15.03125 23.308594 15.152344 23.503906 15.332031 23.613281 L 15.328125 23.621094 L 15.324219 23.621094 L 61.273438 50.152344 L 62.523438 50.152344 L 61.898438 49.070312 L 48.140625 41.128906 " fill-opacity="1" fill-rule="nonzero"/></g><g clip-path="url(#2affa1f507)"><path fill="#f7f7f7" d="M 8.15625 36.074219 L 0.652344 31.742188 L 0.652344 -3.628906 L 1.277344 -3.988281 L 0.0273438 -3.988281 L 0.0273438 50.152344 L 1.257812 50.152344 L 0.632812 49.789062 L 0.632812 49.101562 L 0.652344 49.070312 L 0.652344 33.183594 L 7.515625 37.148438 L 7.511719 37.15625 L 30.019531 50.152344 L 32.515625 50.152344 L 8.152344 36.082031 L 8.15625 36.074219 " fill-opacity="1" fill-rule="nonzero"/></g><g clip-path="url(#096fdff224)"><path fill="#f7f7f7" d="M 304.4375 36.074219 L 280.992188 49.609375 C 280.792969 49.726562 280.683594 49.9375 280.683594 50.152344 L 282.554688 50.152344 L 296.3125 42.207031 L 296.3125 50.152344 L 297.5625 50.152344 L 297.5625 41.488281 L 305.0625 37.15625 L 304.4375 36.074219 " fill-opacity="1" fill-rule="nonzero"/></g><path fill="#f7f7f7" d="M 265.050781 24.167969 L 289.433594 10.085938 L 288.808594 9.007812 L 266.300781 22 L 265.050781 24.167969 " fill-opacity="1" fill-rule="nonzero"/><g clip-path="url(#ef856e5450)"><path fill="#f7f7f7" d="M 297.558594 24.164062 L 296.625 22.542969 L 296.621094 22.539062 L 250.671875 49.070312 L 250.066406 50.117188 L 250.363281 49.609375 L 250.675781 49.070312 L 250.050781 49.429688 L 249.480469 49.101562 L 249.460938 49.070312 L 235.707031 41.128906 L 242.582031 37.15625 L 242.574219 37.140625 L 265.054688 24.164062 L 266.304688 21.996094 L 241.925781 36.074219 L 241.933594 36.089844 L 234.457031 40.402344 L 203.828125 22.722656 L 203.828125 22.03125 L 203.84375 22 L 203.84375 6.113281 L 210.710938 10.078125 L 210.703125 10.089844 L 234.144531 23.625 C 234.347656 23.738281 234.582031 23.730469 234.769531 23.621094 L 234.761719 23.605469 L 280.683594 -2.90625 L 281.308594 -3.988281 L 282.539062 -3.988281 L 281.914062 -4.347656 L 281.914062 -5.035156 L 281.929688 -5.070312 L 281.929688 -20.957031 L 288.796875 -16.992188 L 288.789062 -16.984375 L 311.296875 -3.988281 L 313.796875 -3.988281 L 289.429688 -18.054688 L 289.433594 -18.066406 L 281.929688 -22.398438 L 281.929688 -57.765625 L 282.554688 -58.128906 L 280.683594 -58.128906 L 280.683594 -4.347656 L 280.058594 -3.988281 L 266.300781 3.957031 L 266.300781 -3.988281 L 265.050781 -3.988281 L 265.050781 4.675781 L 234.421875 22.359375 L 233.851562 22.03125 L 233.835938 22.003906 L 220.078125 14.058594 L 226.957031 10.085938 L 226.949219 10.074219 L 250.363281 -3.449219 C 250.5625 -3.5625 250.671875 -3.773438 250.671875 -3.988281 L 248.800781 -3.988281 L 235.042969 3.957031 L 235.042969 -3.988281 L 233.792969 -3.988281 L 233.792969 4.675781 L 226.296875 9.007812 L 226.304688 9.023438 L 218.828125 13.339844 L 211.34375 9.015625 L 211.347656 9.003906 L 203.84375 4.671875 L 203.84375 -3.988281 L 202.59375 -3.988281 L 202.59375 23.082031 C 202.59375 23.308594 202.714844 23.503906 202.894531 23.613281 L 202.890625 23.621094 L 248.835938 50.152344 L 251.296875 50.152344 L 265.054688 42.207031 L 265.054688 50.152344 L 266.304688 50.152344 L 266.304688 41.488281 L 296.933594 23.800781 L 297.558594 24.164062 " fill-opacity="1" fill-rule="nonzero"/></g><path fill="#f7f7f7" d="M 297.246094 22.539062 C 297.046875 22.421875 296.8125 22.433594 296.625 22.539062 L 297.558594 24.164062 L 311.316406 32.105469 L 304.4375 36.074219 L 305.0625 37.15625 L 312.566406 32.824219 L 320.066406 37.15625 L 320.691406 36.074219 L 297.246094 22.539062 " fill-opacity="1" fill-rule="nonzero"/><path fill="#f7f7f7" d="M 313.8125 -3.988281 L 311.3125 -3.988281 L 335.695312 10.085938 L 336.320312 9.007812 L 313.8125 -3.988281 " fill-opacity="1" fill-rule="nonzero"/><path fill="#f7f7f7" d="M 328.503906 22.542969 L 328.503906 22.539062 L 282.554688 -3.988281 L 281.308594 -3.988281 L 281.929688 -2.90625 L 295.691406 5.035156 L 288.8125 9.007812 L 289.4375 10.089844 L 296.9375 5.757812 L 327.566406 23.441406 L 327.566406 24.164062 L 328.503906 22.542969 " fill-opacity="1" fill-rule="nonzero"/><g clip-path="url(#19ea11ec18)"><path fill="#f7f7f7" d="M 343.199219 -2.90625 L 343.199219 12.980469 L 336.320312 9.007812 L 335.695312 10.089844 L 343.199219 14.421875 L 343.199219 49.792969 L 342.574219 50.152344 L 344.449219 50.152344 L 344.449219 -3.628906 L 345.074219 -3.988281 L 343.824219 -3.988281 L 343.199219 -2.90625 " fill-opacity="1" fill-rule="nonzero"/></g><g clip-path="url(#2b46efe4a7)"><path fill="#f7f7f7" d="M 328.507812 22.542969 L 327.570312 24.164062 L 327.570312 40.046875 L 320.691406 36.078125 L 320.066406 37.15625 L 327.570312 41.492188 L 327.570312 50.152344 L 328.820312 50.152344 L 328.820312 23.078125 C 328.820312 22.847656 328.695312 22.652344 328.507812 22.542969 " fill-opacity="1" fill-rule="nonzero"/></g><g clip-path="url(#134865dcde)"><path fill="#f7f7f7" d="M 374.457031 -3.988281 L 374.457031 49.792969 L 373.832031 50.152344 L 374.964844 50.152344 L 374.964844 -3.988281 L 374.457031 -3.988281 " fill-opacity="1" fill-rule="nonzero"/></g><g clip-path="url(#4b76f37283)"><path fill="#f7f7f7" d="M 358.828125 22 L 358.828125 50.152344 L 360.078125 50.152344 L 360.078125 24.164062 L 360.078125 24.167969 L 360.078125 -3.988281 L 358.828125 -3.988281 L 358.828125 22 " fill-opacity="1" fill-rule="nonzero"/></g></svg>