<svg xmlns="http://www.w3.org/2000/svg" xmlns:xlink="http://www.w3.org/1999/xlink" width="500" zoomAndPan="magnify" viewBox="0 0 375 374.999991" height="500" preserveAspectRatio="xMidYMid meet" version="1.0"><defs><g/></defs><g fill="#f04d12" fill-opacity="1"><g transform="translate(48.98298, 312.395694)"><g><path d="M 113.3125 -0.3125 C 110.601562 0.3125 107.785156 0.101562 104.859375 -0.9375 C 104.023438 -1.144531 103.347656 -1.457031 102.828125 -1.875 C 102.304688 -2.289062 101.734375 -2.707031 101.109375 -3.125 C 99.640625 -4.164062 98.488281 -5.734375 97.65625 -7.828125 L 96.40625 -11.890625 C 96.40625 -12.304688 96.351562 -12.671875 96.25 -12.984375 C 96.144531 -13.296875 96.09375 -13.554688 96.09375 -13.765625 C 96.09375 -16.691406 95.882812 -19.5625 95.46875 -22.375 C 95.050781 -25.195312 94.632812 -27.960938 94.21875 -30.671875 C 93.800781 -32.765625 93.4375 -34.851562 93.125 -36.9375 C 92.8125 -39.019531 92.445312 -41.109375 92.03125 -43.203125 C 92.03125 -43.617188 91.976562 -43.929688 91.875 -44.140625 C 91.769531 -44.347656 91.71875 -44.554688 91.71875 -44.765625 C 91.300781 -47.265625 90.878906 -49.765625 90.453125 -52.265625 C 90.035156 -54.773438 89.617188 -57.175781 89.203125 -59.46875 C 88.992188 -60.71875 88.835938 -61.96875 88.734375 -63.21875 C 88.628906 -64.476562 88.367188 -65.734375 87.953125 -66.984375 L 86.078125 -80.765625 C 85.867188 -82.640625 85.609375 -84.566406 85.296875 -86.546875 C 84.984375 -88.523438 84.617188 -90.5625 84.203125 -92.65625 C 83.992188 -94.738281 83.679688 -96.769531 83.265625 -98.75 C 82.847656 -100.738281 82.429688 -102.671875 82.015625 -104.546875 L 77.3125 -125.203125 C 76.894531 -127.503906 76.476562 -129.800781 76.0625 -132.09375 C 75.644531 -134.382812 75.125 -136.578125 74.5 -138.671875 C 73.875 -140.546875 73.351562 -142.472656 72.9375 -144.453125 C 72.519531 -146.441406 71.890625 -148.375 71.046875 -150.25 L 70.734375 -151.5 C 70.109375 -154.207031 69.328125 -156.8125 68.390625 -159.3125 C 67.453125 -161.820312 66.460938 -164.332031 65.421875 -166.84375 C 65.421875 -167.050781 65.367188 -167.207031 65.265625 -167.3125 C 65.160156 -167.414062 65.109375 -167.46875 65.109375 -167.46875 C 64.691406 -168.71875 63.960938 -169.132812 62.921875 -168.71875 C 62.710938 -168.507812 62.398438 -168.40625 61.984375 -168.40625 C 61.140625 -168.195312 60.351562 -167.882812 59.625 -167.46875 C 58.894531 -167.050781 58.113281 -166.632812 57.28125 -166.21875 C 55.195312 -165.582031 53.421875 -164.640625 51.953125 -163.390625 L 43.515625 -157.453125 C 42.253906 -156.828125 41.15625 -155.988281 40.21875 -154.9375 C 39.28125 -153.894531 38.394531 -152.851562 37.5625 -151.8125 C 36.9375 -150.976562 36.625 -150.039062 36.625 -149 L 35.6875 -143.359375 C 35.476562 -141.273438 35.269531 -139.082031 35.0625 -136.78125 C 34.851562 -134.488281 34.644531 -132.195312 34.4375 -129.90625 C 34.226562 -127.8125 33.960938 -125.878906 33.640625 -124.109375 C 33.328125 -122.335938 33.171875 -120.40625 33.171875 -118.3125 C 33.171875 -116.644531 32.859375 -114.875 32.234375 -113 C 31.609375 -110.707031 30.046875 -109.242188 27.546875 -108.609375 C 25.671875 -108.398438 24.101562 -109.03125 22.84375 -110.5 C 21.800781 -111.539062 21.070312 -113.101562 20.65625 -115.1875 C 20.445312 -116.644531 20.238281 -118 20.03125 -119.25 C 19.820312 -120.507812 19.71875 -121.867188 19.71875 -123.328125 L 19.71875 -132.71875 C 19.71875 -134.59375 19.664062 -136.363281 19.5625 -138.03125 C 19.457031 -139.707031 19.507812 -141.273438 19.71875 -142.734375 C 19.71875 -146.285156 18.882812 -149.726562 17.21875 -153.0625 L 12.515625 -162.765625 C 11.679688 -164.429688 10.953125 -166.671875 10.328125 -169.484375 C 9.703125 -172.304688 9.390625 -174.660156 9.390625 -176.546875 C 9.804688 -181.335938 11.582031 -185.300781 14.71875 -188.4375 C 17.425781 -191.144531 20.554688 -192.914062 24.109375 -193.75 C 25.359375 -194.164062 27.023438 -194.585938 29.109375 -195.015625 L 45.703125 -197.828125 C 47.367188 -198.035156 48.984375 -198.296875 50.546875 -198.609375 C 52.117188 -198.921875 53.632812 -199.179688 55.09375 -199.390625 C 58.21875 -199.804688 61.394531 -200.222656 64.625 -200.640625 C 67.863281 -201.054688 71.15625 -201.367188 74.5 -201.578125 C 76.375 -201.785156 78.25 -201.992188 80.125 -202.203125 C 82.007812 -202.410156 83.890625 -202.617188 85.765625 -202.828125 L 87.015625 -202.828125 C 88.890625 -203.035156 90.710938 -203.191406 92.484375 -203.296875 C 94.265625 -203.398438 96.09375 -203.554688 97.96875 -203.765625 C 99.007812 -203.984375 100.050781 -204.09375 101.09375 -204.09375 C 102.144531 -204.09375 103.085938 -204.195312 103.921875 -204.40625 C 104.128906 -204.613281 104.546875 -204.71875 105.171875 -204.71875 L 116.75 -205.65625 C 119.050781 -205.863281 121.296875 -206.070312 123.484375 -206.28125 C 125.671875 -206.488281 127.914062 -206.695312 130.21875 -206.90625 C 132.09375 -207.113281 133.96875 -207.375 135.84375 -207.6875 C 137.726562 -208 139.609375 -208.570312 141.484375 -209.40625 C 143.359375 -210.238281 145.285156 -210.5 147.265625 -210.1875 C 149.253906 -209.875 151.082031 -209.300781 152.75 -208.46875 C 153.375 -208.257812 153.945312 -207.894531 154.46875 -207.375 C 154.988281 -206.851562 155.457031 -206.382812 155.875 -205.96875 C 156.925781 -204.925781 157.765625 -203.722656 158.390625 -202.359375 C 159.015625 -201.003906 159.640625 -199.703125 160.265625 -198.453125 C 160.890625 -197.203125 160.890625 -195.953125 160.265625 -194.703125 C 159.847656 -193.859375 159.585938 -192.96875 159.484375 -192.03125 C 159.378906 -191.09375 159.222656 -190.101562 159.015625 -189.0625 C 159.015625 -188.019531 158.703125 -187.1875 158.078125 -186.5625 C 157.660156 -186.351562 157.238281 -186.039062 156.8125 -185.625 C 156.394531 -185.207031 155.976562 -184.785156 155.5625 -184.359375 C 154.9375 -184.148438 154.3125 -183.523438 153.6875 -182.484375 C 152.4375 -180.816406 150.664062 -179.984375 148.375 -179.984375 C 147.539062 -179.984375 146.753906 -179.878906 146.015625 -179.671875 C 145.285156 -179.460938 144.503906 -179.253906 143.671875 -179.046875 C 141.796875 -178.628906 140.546875 -178.003906 139.921875 -177.171875 C 138.878906 -176.128906 137.726562 -175.609375 136.46875 -175.609375 C 135.007812 -175.179688 133.863281 -175.597656 133.03125 -176.859375 C 132.820312 -177.484375 132.300781 -177.796875 131.46875 -177.796875 C 130.632812 -177.585938 129.742188 -177.484375 128.796875 -177.484375 C 127.859375 -177.484375 126.972656 -177.484375 126.140625 -177.484375 C 125.304688 -177.273438 124.421875 -177.171875 123.484375 -177.171875 C 122.546875 -177.171875 121.554688 -177.066406 120.515625 -176.859375 C 119.679688 -176.859375 118.945312 -176.804688 118.3125 -176.703125 C 117.6875 -176.597656 116.957031 -176.546875 116.125 -176.546875 C 114.039062 -176.335938 111.898438 -176.128906 109.703125 -175.921875 C 107.515625 -175.710938 105.273438 -175.5 102.984375 -175.28125 C 101.734375 -175.28125 100.796875 -175.175781 100.171875 -174.96875 C 99.328125 -174.550781 98.90625 -173.925781 98.90625 -173.09375 C 98.695312 -172.257812 98.695312 -171.21875 98.90625 -169.96875 L 100.796875 -160.265625 C 101.210938 -158.390625 101.628906 -156.457031 102.046875 -154.46875 C 102.460938 -152.488281 102.878906 -150.457031 103.296875 -148.375 L 104.234375 -141.484375 C 104.234375 -140.648438 104.285156 -139.867188 104.390625 -139.140625 C 104.492188 -138.410156 104.648438 -137.625 104.859375 -136.78125 C 105.273438 -134.28125 105.742188 -131.773438 106.265625 -129.265625 C 106.785156 -126.765625 107.148438 -124.265625 107.359375 -121.765625 L 107.671875 -120.515625 C 108.503906 -117.796875 109.128906 -115.078125 109.546875 -112.359375 C 109.972656 -109.648438 110.394531 -106.835938 110.8125 -103.921875 C 111.226562 -102.046875 111.644531 -100.113281 112.0625 -98.125 C 112.476562 -96.144531 112.789062 -94.21875 113 -92.34375 C 113.207031 -90.882812 113.414062 -89.472656 113.625 -88.109375 C 113.832031 -86.753906 114.039062 -85.347656 114.25 -83.890625 L 114.25 -82.328125 C 114.457031 -80.648438 114.71875 -79.03125 115.03125 -77.46875 C 115.34375 -75.90625 115.601562 -74.289062 115.8125 -72.625 L 116.75 -63.234375 C 116.957031 -61.765625 117.164062 -60.300781 117.375 -58.84375 C 117.582031 -57.382812 117.789062 -55.820312 118 -54.15625 C 118 -53.738281 118.050781 -53.265625 118.15625 -52.734375 C 118.257812 -52.210938 118.3125 -51.742188 118.3125 -51.328125 C 118.3125 -50.285156 118.414062 -49.191406 118.625 -48.046875 C 118.84375 -46.898438 119.054688 -45.703125 119.265625 -44.453125 C 119.679688 -42.148438 120.097656 -39.800781 120.515625 -37.40625 C 120.929688 -35.007812 121.347656 -32.554688 121.765625 -30.046875 C 121.972656 -28.585938 122.285156 -27.179688 122.703125 -25.828125 C 123.117188 -24.472656 123.429688 -23.0625 123.640625 -21.59375 C 123.847656 -20.550781 124.472656 -19.507812 125.515625 -18.46875 C 126.347656 -17.84375 126.554688 -17.113281 126.140625 -16.28125 C 125.515625 -15.445312 125.148438 -14.503906 125.046875 -13.453125 C 124.941406 -12.410156 124.785156 -11.367188 124.578125 -10.328125 C 124.578125 -9.492188 124.472656 -8.867188 124.265625 -8.453125 C 124.265625 -7.410156 123.847656 -6.679688 123.015625 -6.265625 C 122.179688 -5.847656 121.347656 -5.007812 120.515625 -3.75 C 119.472656 -2.707031 118.632812 -1.976562 118 -1.5625 C 117.375 -0.9375 116.539062 -0.625 115.5 -0.625 C 115.082031 -0.832031 114.351562 -0.726562 113.3125 -0.3125 Z M 113.3125 -0.3125 "/></g></g></g><g fill="#f04d12" fill-opacity="1"><g transform="translate(186.397581, 312.395694)"><g><path d="M 61.984375 40.6875 C 60.304688 40.269531 59.15625 39.332031 58.53125 37.875 C 58.113281 36.207031 57.695312 34.640625 57.28125 33.171875 C 56.863281 31.710938 56.65625 30.253906 56.65625 28.796875 L 56.65625 26.921875 C 56.863281 24.835938 56.757812 22.800781 56.34375 20.8125 C 55.925781 18.832031 55.613281 16.800781 55.40625 14.71875 C 55.40625 13.875 55.300781 13.242188 55.09375 12.828125 L 51.640625 6.265625 C 51.222656 5.847656 50.597656 5.007812 49.765625 3.75 C 49.140625 2.289062 48.460938 0.988281 47.734375 -0.15625 C 47.003906 -1.300781 46.222656 -2.5 45.390625 -3.75 C 44.972656 -4.59375 44.453125 -5.328125 43.828125 -5.953125 C 43.203125 -6.578125 42.570312 -7.304688 41.9375 -8.140625 C 41.519531 -8.765625 41.101562 -9.492188 40.6875 -10.328125 C 40.269531 -11.160156 39.644531 -11.890625 38.8125 -12.515625 L 37.875 -14.078125 C 37.039062 -15.546875 36.257812 -16.90625 35.53125 -18.15625 C 34.800781 -19.40625 34.125 -20.65625 33.5 -21.90625 L 32.546875 -23.796875 C 31.710938 -26.503906 30.828125 -29.109375 29.890625 -31.609375 C 28.953125 -34.117188 27.960938 -36.726562 26.921875 -39.4375 C 26.296875 -41.101562 25.722656 -42.664062 25.203125 -44.125 C 24.679688 -45.59375 24 -47.054688 23.15625 -48.515625 C 21.695312 -51.648438 20.757812 -54.988281 20.34375 -58.53125 C 20.132812 -61.039062 20.34375 -63.648438 20.96875 -66.359375 C 21.59375 -68.023438 22.535156 -69.484375 23.796875 -70.734375 C 27.753906 -74.078125 32.132812 -75.332031 36.9375 -74.5 L 40.375 -73.875 C 42.882812 -72.832031 44.660156 -71.367188 45.703125 -69.484375 C 46.535156 -68.023438 47.265625 -66.515625 47.890625 -64.953125 C 48.515625 -63.390625 48.929688 -61.664062 49.140625 -59.78125 C 49.554688 -58.53125 49.972656 -57.226562 50.390625 -55.875 C 50.804688 -54.519531 51.328125 -53.109375 51.953125 -51.640625 C 53.003906 -49.347656 54.15625 -47.054688 55.40625 -44.765625 C 56.445312 -42.878906 57.695312 -41.3125 59.15625 -40.0625 C 60.195312 -39.226562 61.34375 -38.289062 62.59375 -37.25 C 63.851562 -36.207031 65.003906 -35.164062 66.046875 -34.125 L 72.625 -27.546875 C 73.039062 -27.335938 73.40625 -27.023438 73.71875 -26.609375 C 74.03125 -26.191406 74.289062 -25.773438 74.5 -25.359375 C 75.125 -24.941406 75.851562 -24.835938 76.6875 -25.046875 C 78.769531 -25.671875 80.859375 -26.816406 82.953125 -28.484375 C 86.285156 -31.191406 89 -34.007812 91.09375 -36.9375 C 93.175781 -39.851562 94.53125 -43.296875 95.15625 -47.265625 C 95.570312 -50.816406 94.53125 -53.945312 92.03125 -56.65625 C 91.613281 -57.488281 90.988281 -58.007812 90.15625 -58.21875 C 88.6875 -59.050781 87.273438 -59.832031 85.921875 -60.5625 C 84.566406 -61.300781 83.054688 -61.878906 81.390625 -62.296875 C 79.710938 -62.921875 78.25 -63.859375 77 -65.109375 C 76.164062 -66.148438 74.914062 -66.773438 73.25 -66.984375 C 71.78125 -67.398438 70.421875 -67.921875 69.171875 -68.546875 C 67.921875 -69.171875 66.773438 -69.898438 65.734375 -70.734375 C 64.484375 -71.785156 63.226562 -72.675781 61.96875 -73.40625 C 60.71875 -74.132812 59.46875 -74.914062 58.21875 -75.75 C 56.96875 -76.375 55.769531 -77.101562 54.625 -77.9375 C 53.476562 -78.769531 52.378906 -79.601562 51.328125 -80.4375 C 49.867188 -81.488281 48.515625 -82.585938 47.265625 -83.734375 C 46.015625 -84.878906 44.765625 -85.972656 43.515625 -87.015625 C 42.671875 -87.429688 42.144531 -87.847656 41.9375 -88.265625 C 40.894531 -89.523438 39.800781 -90.726562 38.65625 -91.875 C 37.507812 -93.019531 36.414062 -94.320312 35.375 -95.78125 C 34.75 -96.613281 34.117188 -97.394531 33.484375 -98.125 C 32.859375 -98.851562 32.128906 -99.640625 31.296875 -100.484375 C 30.460938 -101.316406 29.679688 -102.203125 28.953125 -103.140625 C 28.222656 -104.078125 27.648438 -105.066406 27.234375 -106.109375 L 24.421875 -110.8125 C 23.367188 -112.894531 22.425781 -114.976562 21.59375 -117.0625 C 20.757812 -119.15625 19.820312 -121.242188 18.78125 -123.328125 C 17.945312 -125.617188 17.164062 -127.910156 16.4375 -130.203125 C 15.707031 -132.503906 15.132812 -134.800781 14.71875 -137.09375 C 14.507812 -138.769531 14.242188 -140.335938 13.921875 -141.796875 C 13.609375 -143.253906 13.347656 -144.710938 13.140625 -146.171875 C 12.929688 -148.472656 12.828125 -150.71875 12.828125 -152.90625 C 12.828125 -155.09375 12.722656 -157.335938 12.515625 -159.640625 C 12.515625 -162.347656 12.722656 -165.054688 13.140625 -167.765625 C 13.554688 -170.484375 14.082031 -173.203125 14.71875 -175.921875 C 15.132812 -177.585938 15.550781 -179.253906 15.96875 -180.921875 C 16.382812 -182.585938 16.800781 -184.15625 17.21875 -185.625 C 17.632812 -186.664062 18.050781 -187.65625 18.46875 -188.59375 C 18.882812 -189.53125 19.195312 -190.414062 19.40625 -191.25 C 21.070312 -195.632812 23.472656 -200.019531 26.609375 -204.40625 C 27.648438 -205.863281 28.742188 -207.269531 29.890625 -208.625 C 31.035156 -209.976562 32.238281 -211.28125 33.5 -212.53125 C 34.539062 -213.582031 35.582031 -214.734375 36.625 -215.984375 C 37.664062 -217.234375 38.601562 -218.484375 39.4375 -219.734375 C 42.15625 -223.285156 45.285156 -225.894531 48.828125 -227.5625 C 52.378906 -229.4375 56.445312 -230.164062 61.03125 -229.75 C 66.664062 -228.914062 71.988281 -226.726562 77 -223.1875 C 78.664062 -221.925781 80.382812 -220.617188 82.15625 -219.265625 C 83.9375 -217.910156 85.660156 -216.503906 87.328125 -215.046875 C 91.503906 -211.703125 94.945312 -207.941406 97.65625 -203.765625 C 98.90625 -201.890625 100.15625 -200.015625 101.40625 -198.140625 C 102.664062 -196.265625 103.816406 -194.382812 104.859375 -192.5 C 105.484375 -191.664062 106.003906 -190.832031 106.421875 -190 C 106.835938 -189.164062 107.148438 -188.226562 107.359375 -187.1875 C 107.773438 -185.300781 107.929688 -183.472656 107.828125 -181.703125 C 107.722656 -179.929688 107.460938 -178.109375 107.046875 -176.234375 L 106.109375 -173.71875 C 105.484375 -172.675781 104.859375 -171.53125 104.234375 -170.28125 C 103.609375 -169.03125 102.984375 -167.882812 102.359375 -166.84375 C 101.941406 -166 101.472656 -165.210938 100.953125 -164.484375 C 100.429688 -163.753906 99.957031 -163.078125 99.53125 -162.453125 C 97.863281 -159.742188 97.03125 -157.03125 97.03125 -154.3125 L 97.03125 -123.953125 C 97.03125 -119.773438 96.40625 -115.8125 95.15625 -112.0625 C 95.15625 -111.851562 95.101562 -111.695312 95 -111.59375 C 94.894531 -111.488281 94.84375 -111.226562 94.84375 -110.8125 C 94.84375 -109.769531 95.15625 -108.929688 95.78125 -108.296875 L 98.59375 -106.421875 C 100.894531 -104.960938 103.035156 -103.34375 105.015625 -101.5625 C 106.992188 -99.789062 109.03125 -98.070312 111.125 -96.40625 C 112.375 -95.363281 113.519531 -94.164062 114.5625 -92.8125 C 115.601562 -91.457031 116.539062 -90.148438 117.375 -88.890625 C 118.21875 -87.847656 118.953125 -86.753906 119.578125 -85.609375 C 120.203125 -84.460938 120.828125 -83.367188 121.453125 -82.328125 C 122.492188 -80.859375 123.273438 -79.1875 123.796875 -77.3125 C 124.316406 -75.4375 124.785156 -73.5625 125.203125 -71.6875 L 125.203125 -70.421875 C 124.992188 -68.960938 124.992188 -67.398438 125.203125 -65.734375 C 125.410156 -64.066406 125.617188 -62.394531 125.828125 -60.71875 C 125.828125 -60.300781 125.878906 -59.832031 125.984375 -59.3125 C 126.085938 -58.789062 126.035156 -58.21875 125.828125 -57.59375 L 124.890625 -51.015625 C 124.472656 -49.972656 124.679688 -49.347656 125.515625 -49.140625 C 126.140625 -49.140625 126.453125 -48.929688 126.453125 -48.515625 C 127.078125 -48.304688 127.179688 -47.785156 126.765625 -46.953125 C 126.347656 -46.117188 125.828125 -45.910156 125.203125 -46.328125 C 125.203125 -46.535156 125.097656 -46.640625 124.890625 -46.640625 C 124.265625 -46.847656 123.847656 -46.742188 123.640625 -46.328125 C 123.429688 -45.703125 123.273438 -45.078125 123.171875 -44.453125 C 123.066406 -43.828125 123.015625 -43.09375 123.015625 -42.25 C 122.179688 -41 121.972656 -39.957031 122.390625 -39.125 C 122.390625 -38.5 122.285156 -38.082031 122.078125 -37.875 C 121.453125 -37.25 121.242188 -36.414062 121.453125 -35.375 C 121.453125 -34.957031 121.140625 -34.539062 120.515625 -34.125 C 119.265625 -33.488281 118.320312 -32.335938 117.6875 -30.671875 C 116.644531 -27.960938 115.445312 -25.40625 114.09375 -23 C 112.738281 -20.601562 111.226562 -18.257812 109.5625 -15.96875 C 107.882812 -13.664062 106.160156 -11.421875 104.390625 -9.234375 C 102.617188 -7.046875 100.582031 -5.007812 98.28125 -3.125 C 96.40625 -1.664062 94.421875 -0.257812 92.328125 1.09375 C 90.242188 2.445312 88.054688 3.644531 85.765625 4.6875 C 84.929688 4.90625 84.097656 5.328125 83.265625 5.953125 L 79.5 7.828125 C 77.832031 8.035156 76.164062 8.867188 74.5 10.328125 L 72.625 11.578125 C 72 12.203125 71.472656 13.25 71.046875 14.71875 L 71.046875 23.15625 C 71.046875 24 71.046875 24.835938 71.046875 25.671875 C 71.046875 26.503906 70.941406 27.335938 70.734375 28.171875 C 70.523438 28.585938 70.421875 29.109375 70.421875 29.734375 C 70.421875 30.359375 70.316406 30.878906 70.109375 31.296875 C 69.898438 32.128906 69.691406 33.015625 69.484375 33.953125 C 69.273438 34.898438 68.960938 35.894531 68.546875 36.9375 C 67.503906 39.851562 65.316406 41.101562 61.984375 40.6875 Z M 81.078125 -116.4375 C 81.910156 -116.4375 82.429688 -116.75 82.640625 -117.375 C 82.847656 -118.425781 82.898438 -119.472656 82.796875 -120.515625 C 82.691406 -121.554688 82.535156 -122.492188 82.328125 -123.328125 C 82.117188 -124.367188 82.015625 -125.460938 82.015625 -126.609375 C 82.015625 -127.765625 81.910156 -128.863281 81.703125 -129.90625 C 81.703125 -131.15625 81.597656 -132.40625 81.390625 -133.65625 C 81.179688 -134.90625 81.179688 -136.15625 81.390625 -137.40625 C 81.597656 -137.625 81.648438 -137.785156 81.546875 -137.890625 C 81.441406 -137.992188 81.390625 -138.046875 81.390625 -138.046875 C 81.179688 -139.503906 81.078125 -140.859375 81.078125 -142.109375 C 81.078125 -143.359375 81.078125 -144.609375 81.078125 -145.859375 C 81.078125 -150.035156 80.238281 -154.109375 78.5625 -158.078125 C 77.101562 -161.410156 75.59375 -164.640625 74.03125 -167.765625 C 72.46875 -170.898438 70.847656 -174.035156 69.171875 -177.171875 C 68.546875 -178.421875 67.765625 -179.617188 66.828125 -180.765625 C 65.890625 -181.910156 64.898438 -183.003906 63.859375 -184.046875 C 63.023438 -185.304688 61.875 -185.515625 60.40625 -184.671875 C 59.15625 -184.460938 57.800781 -183.628906 56.34375 -182.171875 C 55.09375 -180.710938 53.941406 -179.144531 52.890625 -177.46875 C 51.847656 -175.800781 50.910156 -174.03125 50.078125 -172.15625 C 49.867188 -171.53125 49.660156 -170.90625 49.453125 -170.28125 C 49.242188 -169.65625 49.035156 -169.132812 48.828125 -168.71875 C 48.617188 -167.257812 48.460938 -165.742188 48.359375 -164.171875 C 48.253906 -162.609375 48.203125 -160.992188 48.203125 -159.328125 L 48.203125 -155.25 C 48.203125 -152.332031 49.035156 -149.203125 50.703125 -145.859375 C 52.171875 -142.734375 54.257812 -139.601562 56.96875 -136.46875 C 57.59375 -135.632812 58.21875 -134.851562 58.84375 -134.125 C 59.46875 -133.394531 60.09375 -132.507812 60.71875 -131.46875 C 62.601562 -128.957031 64.742188 -126.765625 67.140625 -124.890625 C 69.535156 -123.015625 72.09375 -121.242188 74.8125 -119.578125 L 79.5 -117.0625 C 79.914062 -116.851562 80.226562 -116.75 80.4375 -116.75 C 80.65625 -116.75 80.867188 -116.644531 81.078125 -116.4375 Z M 81.078125 -116.4375 "/></g></g></g></svg>